<?xml version="1.0" encoding="utf-8"?>
<!-- Generator: Adobe Illustrator 27.6.1, SVG Export Plug-In . SVG Version: 6.00 Build 0)  -->
<svg version="1.1" id="Layer_1" xmlns="http://www.w3.org/2000/svg" xmlns:xlink="http://www.w3.org/1999/xlink" x="0px" y="0px"
	 viewBox="0 0 100.4 100.4" style="enable-background:new 0 0 100.4 100.4;" xml:space="preserve">
<style type="text/css">
	.st0{fill:#FFFFFF;}
	.st1{fill:#3C4D40;}
</style>
<rect x="-1.6" y="-1.3" class="st0" width="103.1" height="103.1"/>
<g>
	<g>
		<path class="st1" d="M66.9,50.3c-0.1-2.3-1.9-3.7-2.4-0.6c-0.8,5.4-0.8,12.1-3.8,16.9c-2.3,3.6-6.9,4.5-10.8,3.6
			c-0.7-0.2-1.3-0.4-1.9-0.6c0.2-0.3,0.4-0.6,0.5-0.8c3-4.9,5-10.9,3.9-16.7c-0.7-3.7-4.7-9.7-9.1-6.7c-0.9,0.6-1.5,1.4-1.9,2.3
			c-0.2-0.1-0.5-0.2-0.7-0.3c-3.1-1.1-4.6,2.1-4.9,4.6C35,57.7,37.3,65,41,70c-1.8,1-3.7,1.6-6,1.7c-1.6,0.1-1.3,4.5,0.1,4.8
			c3.5,0.8,6.8-0.6,9.5-2.9C49,76.9,55.4,78,60,74.3c2.9-2.3,4-5.9,5-9.3v0C66.2,60.3,67.1,55.2,66.9,50.3z M44.4,67.3
			c-1.8-1.6-3.1-3.6-4.1-5.8c-0.9-1.9-2.1-4.8-2-7c0-1.2,0.6-1.8,2-1.4c0.2,0.1,0.4,0.2,0.6,0.3c0.3,1.9,0.9,3.7,1.6,5.1
			c1.2,2.3,2.2-1,2.1-2.1c0-1.5-0.2-3.4-0.7-5.1c1-1,2.8-0.6,3.9,0l0,0c3.4,2,2.3,6.1,1,9.2C47.7,63,46.3,65.4,44.4,67.3z"/>
	</g>
	<path class="st1" d="M64.3,38.1c-5.9-2.8-10.1,0.3-13.8,4.9c-0.7,0.9-1-1.6-0.8-2.1c2.6-5.1,10.1-10.7,15-5
		C64.9,36.2,65.1,38.5,64.3,38.1L64.3,38.1z"/>
	<path class="st1" d="M47.4,36.3c2.3-6.8,11.3-15.9,18.5-9.3c0.5,0.5,0.7,3.3-0.5,3c-3.7-1.1-7.2-1.1-10.6,1.1c-3,2-4.7,5-6.4,8
		C47.6,40.3,47.2,36.9,47.4,36.3z"/>
</g>
</svg>
