<svg width="101" height="102" viewBox="0 0 101 102" fill="none" xmlns="http://www.w3.org/2000/svg">
<rect x="-1.41895" y="-0.515625" width="103.102" height="103.102" fill="#3C4D40"/>
<g clip-path="url(#clip0_280_5318)">
<path d="M48.0165 51.9212C46.9253 51.2789 45.1277 50.8861 44.105 51.9212C44.6269 53.6144 44.7323 55.5305 44.7798 57.0539C44.8114 58.1792 43.8151 61.4647 42.6343 59.1558C41.9437 57.8076 41.3322 55.9764 41.0634 54.0815C40.9 53.9806 40.7207 53.8957 40.5046 53.8267C39.1498 53.3915 38.57 54.0496 38.5278 55.2333C38.4487 57.3989 39.6559 60.3076 40.5152 62.2238C41.5062 64.4265 42.8873 66.4701 44.648 68.0571C46.4877 66.1569 47.9321 63.763 49.0444 61.0666C50.2832 58.0624 51.4376 53.9382 48.0217 51.9159L48.0165 51.9212Z" fill="white"/>
<path d="M67.5683 18.248H33.5937C30.0829 18.248 27.2363 21.1143 27.2363 24.6493V78.3438C27.2363 81.8788 30.0829 84.7451 33.5937 84.7451H67.5683C71.0791 84.7451 73.9257 81.8788 73.9257 78.3438V24.6493C73.9257 21.1143 71.0791 18.248 67.5683 18.248ZM47.5789 37.0857C49.9089 30.2438 58.8915 21.1727 66.0396 27.781C66.572 28.2746 66.6933 31.0559 65.5599 30.7375C61.8857 29.6865 58.3222 29.644 55.0064 31.8097C52.007 33.7683 50.3517 36.7937 48.591 39.8033C47.8372 41.0931 47.3839 37.6642 47.5789 37.0857ZM64.474 38.8479C58.533 36.04 54.3844 39.1292 50.6258 43.7046C49.8878 44.6016 49.6032 42.1122 49.8509 41.6292C52.4445 36.5761 59.9194 30.9551 64.8377 36.5921C65.1487 36.9477 65.3069 39.246 64.474 38.8532V38.8479ZM65.1856 65.7641C64.2578 69.1983 63.0981 72.7917 60.2252 75.0847C55.6548 78.7419 49.1656 77.6431 44.7165 74.3576C42.0755 76.6612 38.7861 78.1102 35.2648 77.2716C33.8098 76.9266 33.5357 72.5741 35.1488 72.4626C37.4261 72.3087 39.424 71.693 41.1741 70.727C37.5157 65.7907 35.2331 58.4499 35.9501 52.6908C36.2664 50.159 37.8214 46.9902 40.8947 48.0889C41.1583 48.1844 41.3955 48.3012 41.6222 48.4339C42.0333 47.5369 42.6448 46.7619 43.4988 46.1834C47.9479 43.1791 51.891 49.0974 52.629 52.8448C53.7624 58.6303 51.7065 64.6017 48.7386 69.5115C48.57 69.7928 48.3907 70.0741 48.201 70.3554C48.8019 70.6102 49.4239 70.8278 50.0776 70.9817C53.9785 71.9159 58.6754 70.9871 60.9263 67.3724C63.9047 62.59 63.931 55.849 64.7112 50.4456C65.154 47.383 66.9463 48.7895 67.0675 51.0825C67.3206 55.9764 66.456 61.0454 65.1856 65.7588V65.7641Z" fill="white"/>
</g>
<defs>
<clipPath id="clip0_280_5318">
<rect width="46.6894" height="66.4971" fill="white" transform="translate(27.2363 18.248)"/>
</clipPath>
</defs>
</svg>
