<?xml version="1.0" encoding="UTF-8"?>
<svg id="Layer_1" data-name="Layer 1" xmlns="http://www.w3.org/2000/svg" viewBox="0 0 151.22 260.41">
  <defs>
    <style>
      .cls-1 {
        fill: #0c0c0c;
      }
    </style>
  </defs>
  <path class="cls-1" d="m4.33,183.71c12.58,2.97,24.32-2.18,33.76-10.34,15.89,11.66,39.06,15.55,55.4,2.58,10.25-8.14,14.4-20.87,17.71-33.06,4.54-16.72,7.62-34.7,6.73-52.06-.42-8.13-6.83-13.13-8.41-2.27-2.78,19.18-2.87,43.08-13.52,60.05-8.04,12.82-24.82,16.1-38.75,12.79-2.34-.55-4.57-1.32-6.71-2.22.67-.99,1.31-1.99,1.91-2.98,10.59-17.41,17.95-38.61,13.89-59.12-2.63-13.3-16.71-34.29-32.6-23.63-3.06,2.05-5.24,4.8-6.71,7.97-.81-.46-1.66-.88-2.59-1.22-10.98-3.91-16.54,7.33-17.66,16.32-2.56,20.43,5.61,46.47,18.67,63.98-6.25,3.43-13.38,5.61-21.53,6.16-5.75.39-4.78,15.83.42,17.06Zm18.74-53.38c-3.07-6.79-7.38-17.11-7.1-24.79.15-4.19,2.23-6.53,7.07-4.99.76.24,1.41.55,1.99.91.97,6.72,3.15,13.21,5.61,17.99,4.21,8.18,7.79-3.48,7.67-7.46-.16-5.4-.54-12.2-2.4-18.21,3.64-3.67,10.08-2.28,13.97,0,12.21,7.16,8.08,21.8,3.66,32.45-3.97,9.56-9.13,18.06-15.7,24.79-6.28-5.64-11.23-12.87-14.76-20.69Z"/>
  <path class="cls-1" d="m51.93,50.79c6.29-10.69,12.2-21.4,22.91-28.36,11.84-7.69,24.56-7.53,37.7-3.81,4.04,1.14,3.61-8.74,1.71-10.48-25.53-23.44-57.6,8.75-65.93,33.01-.7,2.04.92,14.22,3.61,9.63Z"/>
  <path class="cls-1" d="m56.43,57.27c-.89,1.71.13,10.55,2.76,7.36,13.42-16.22,28.25-27.19,49.45-17.22,2.99,1.4,2.41-6.75,1.31-8.01-17.57-19.99-44.26-.05-53.52,17.87Z"/>
  <path class="cls-1" d="m3.19,209.07c-.73,0-1.3.2-1.69.59-.39.39-.59.96-.59,1.69v14.35c0,.75.22,1.35.66,1.78.44.44,1.03.66,1.78.66s1.38-.22,1.82-.66c.45-.44.67-1.03.67-1.78v-4.56h4.21c2.08,0,3.7-.54,4.87-1.61,1.17-1.07,1.76-2.55,1.76-4.43s-.58-3.37-1.74-4.44c-1.16-1.06-2.79-1.6-4.88-1.6H3.19Zm8.88,6.06c0,.79-.22,1.37-.66,1.74-.44.38-1.11.56-2.02.56h-3.54v-4.64h3.54c1.79,0,2.68.78,2.68,2.33Z"/>
  <path class="cls-1" d="m32.61,227.74c.34.21.72.32,1.13.32.61,0,1.15-.21,1.62-.62.47-.41.71-.91.71-1.5,0-.32-.08-.65-.24-.99l-7.08-14.54c-.23-.48-.58-.85-1.05-1.11-.47-.26-.97-.39-1.5-.39s-1.06.13-1.52.39c-.46.26-.8.63-1.03,1.11l-7.08,14.54c-.16.34-.24.67-.24.99,0,.59.25,1.09.74,1.5.49.41,1.04.62,1.65.62.41,0,.79-.11,1.14-.32.35-.22.62-.54.82-.97l1.24-2.71h8.69l1.21,2.71c.2.43.47.75.8.97Zm-9.04-7.38l2.68-5.98,2.68,5.98h-5.36Z"/>
  <path class="cls-1" d="m64.43,210.97c0-.64-.22-1.15-.66-1.53-.44-.38-.95-.56-1.54-.56-.48,0-.93.13-1.33.4s-.69.65-.87,1.15l-3.84,10.81-3.65-10.78c-.18-.52-.47-.91-.86-1.18-.39-.27-.83-.4-1.31-.4s-.93.13-1.33.4c-.4.27-.69.65-.87,1.15l-3.89,10.57-3.67-10.57c-.18-.52-.48-.91-.9-1.17-.42-.26-.88-.39-1.38-.39-.63,0-1.17.19-1.65.58-.47.38-.71.91-.71,1.57,0,.32.06.66.19,1.02l5.42,14.59c.18.5.5.89.97,1.17.47.28.98.42,1.56.42s1.06-.14,1.53-.42c.46-.28.79-.67.99-1.17l3.65-9.95,3.49,9.95c.18.5.5.89.97,1.17.47.28.98.42,1.56.42s1.1-.14,1.57-.42c.47-.28.8-.67.98-1.17l5.39-14.59c.14-.43.21-.79.21-1.07Z"/>
  <path class="cls-1" d="m81.22,225.39c.66-.9.99-1.94.99-3.12,0-.95-.21-1.77-.62-2.47-.41-.7-1.11-1.31-2.09-1.84-.98-.53-2.33-.98-4.05-1.35-1.06-.21-1.85-.42-2.39-.63-.54-.21-.9-.42-1.1-.63-.2-.22-.29-.49-.29-.83,0-.57.28-1.03.83-1.38.56-.35,1.29-.52,2.2-.52.66,0,1.27.07,1.84.2.56.13,1.06.31,1.47.54.42.22.67.36.76.42.36.22.63.35.83.42s.41.09.64.09c.43,0,.8-.2,1.11-.59.31-.39.47-.86.47-1.39,0-.38-.07-.69-.2-.95-.13-.26-.36-.51-.68-.74-.84-.61-1.77-1.06-2.79-1.34-1.02-.28-2.18-.43-3.49-.43-1.48,0-2.82.26-4.01.79-1.19.53-2.12,1.26-2.8,2.19-.68.93-1.02,1.97-1.02,3.11,0,1,.2,1.86.6,2.56.4.71,1.1,1.32,2.11,1.84,1,.52,2.39.97,4.16,1.34,1.43.29,2.4.58,2.91.87.51.3.76.65.76,1.06,0,.61-.27,1.07-.82,1.38-.54.31-1.35.47-2.4.47-.91,0-1.73-.09-2.45-.27-.72-.18-1.45-.47-2.19-.88-.32-.2-.59-.33-.81-.4-.21-.07-.44-.11-.67-.11-.43,0-.81.2-1.13.59-.32.39-.48.86-.48,1.39,0,.39.07.72.2.97.13.25.35.49.66.72.79.56,1.79.99,3.02,1.3,1.22.31,2.55.47,3.98.47,1.57,0,2.95-.24,4.14-.74,1.19-.49,2.11-1.19,2.78-2.09Z"/>
  <path class="cls-1" d="m105.84,225.91l1.96,1.74c.41.36.87.54,1.37.54.54,0,1.01-.19,1.41-.56.4-.38.6-.81.6-1.31s-.22-.94-.67-1.37l-2.17-1.9c1-1.63,1.59-3.32,1.77-5.07l.03-.29c0-.55-.18-.99-.55-1.31-.37-.32-.8-.48-1.3-.48s-.94.16-1.33.48c-.39.32-.61.78-.68,1.37-.13.93-.4,1.84-.83,2.74l-2.76-2.44c2.07-1.2,3.11-2.75,3.11-4.67,0-1.36-.47-2.45-1.42-3.26-.95-.81-2.23-1.22-3.84-1.22-1.15,0-2.16.21-3.04.62-.89.41-1.57.98-2.05,1.7-.48.72-.72,1.56-.72,2.51,0,1.32.56,2.58,1.69,3.78-1.2.7-2.07,1.47-2.63,2.33-.55.86-.83,1.84-.83,2.95s.29,1.99.87,2.82c.58.82,1.4,1.46,2.44,1.92,1.05.46,2.24.68,3.58.68,1.07,0,2.12-.2,3.15-.59,1.03-.39,1.98-.96,2.86-1.69Zm-6.46-13.48c.31-.31.72-.47,1.23-.47.43,0,.78.14,1.06.42.28.28.42.65.42,1.11s-.15.85-.44,1.21c-.29.36-.79.71-1.49,1.05-.47-.47-.79-.85-.97-1.15-.18-.3-.27-.61-.27-.91,0-.52.15-.93.46-1.25Zm-1.17,11.6c-.46-.39-.68-.92-.68-1.58,0-1.09.48-1.97,1.45-2.63l4.13,3.68c-.98.75-2,1.13-3.06,1.13-.77,0-1.38-.19-1.84-.59Z"/>
  <path class="cls-1" d="m26.26,241.07c-.48,0-.92.13-1.33.4-.4.27-.69.65-.87,1.15l-3.84,10.81-3.65-10.78c-.18-.52-.47-.91-.86-1.18-.39-.27-.83-.4-1.31-.4s-.93.13-1.33.4c-.4.27-.69.65-.87,1.15l-3.89,10.57-3.67-10.57c-.18-.52-.48-.91-.9-1.17-.42-.26-.88-.39-1.38-.39-.63,0-1.17.19-1.65.58C.24,242.03,0,242.55,0,243.21,0,243.53.06,243.87.19,244.23l5.42,14.59c.18.5.5.89.97,1.17.47.28.98.42,1.56.42s1.06-.14,1.53-.42c.46-.28.79-.67.99-1.17l3.65-9.95,3.49,9.95c.18.5.5.89.97,1.17.47.28.98.42,1.56.42s1.1-.14,1.57-.42c.47-.28.8-.67.98-1.17l5.39-14.59c.14-.43.21-.79.21-1.07,0-.64-.22-1.15-.66-1.53-.44-.38-.95-.56-1.54-.56Z"/>
  <path class="cls-1" d="m46.61,241.12c-.73,0-1.32.22-1.76.66-.44.44-.66,1.02-.66,1.76v5.07h-7.72v-5.07c0-.73-.22-1.32-.66-1.76-.44-.44-1.02-.66-1.76-.66s-1.32.22-1.76.66c-.44.44-.66,1.02-.66,1.76v14.35c0,.75.22,1.35.66,1.78.44.44,1.02.66,1.76.66s1.32-.22,1.76-.67.66-1.04.66-1.77v-5.36h7.72v5.36c0,.75.22,1.35.66,1.78.44.44,1.02.66,1.76.66s1.32-.22,1.76-.67c.44-.45.66-1.04.66-1.77v-14.35c0-.73-.22-1.32-.66-1.76-.44-.44-1.02-.66-1.76-.66Z"/>
  <path class="cls-1" d="m55.57,241.12c-.75,0-1.35.22-1.78.66-.44.44-.66,1.02-.66,1.76v14.35c0,.75.22,1.35.66,1.78.44.44,1.03.66,1.78.66s1.38-.22,1.82-.66c.45-.44.67-1.03.67-1.78v-14.35c0-.73-.22-1.32-.67-1.76-.45-.44-1.06-.66-1.82-.66Z"/>
  <path class="cls-1" d="m74.48,250.15c-.98-.53-2.33-.98-4.05-1.36-1.06-.21-1.85-.42-2.39-.63-.54-.21-.9-.42-1.1-.63-.2-.22-.29-.49-.29-.83,0-.57.28-1.03.83-1.38.56-.35,1.29-.52,2.2-.52.66,0,1.27.07,1.84.2.56.13,1.06.31,1.47.54.42.22.67.36.76.42.36.22.63.35.83.42s.41.09.64.09c.43,0,.8-.2,1.11-.59.31-.39.47-.86.47-1.39,0-.38-.07-.69-.2-.95-.13-.26-.36-.51-.68-.74-.84-.61-1.77-1.06-2.79-1.34-1.02-.28-2.18-.43-3.49-.43-1.48,0-2.82.26-4.01.79-1.19.53-2.12,1.26-2.8,2.19-.68.93-1.02,1.97-1.02,3.11,0,1,.2,1.86.6,2.56.4.71,1.1,1.32,2.11,1.84,1,.52,2.39.97,4.16,1.34,1.43.29,2.4.58,2.91.87.51.3.76.65.76,1.06,0,.61-.27,1.07-.82,1.38-.54.31-1.35.47-2.4.47-.91,0-1.73-.09-2.45-.27-.72-.18-1.45-.47-2.19-.88-.32-.2-.59-.33-.81-.4-.21-.07-.44-.11-.67-.11-.43,0-.81.2-1.13.59-.32.39-.48.86-.48,1.39,0,.39.07.72.2.97.13.25.35.49.66.72.79.56,1.79.99,3.02,1.3,1.22.31,2.55.47,3.98.47,1.57,0,2.95-.24,4.14-.74,1.19-.49,2.11-1.19,2.78-2.09.66-.9.99-1.94.99-3.12,0-.95-.21-1.77-.62-2.47-.41-.7-1.11-1.31-2.09-1.84Z"/>
  <path class="cls-1" d="m90.66,250.35l5.5-5.39c.52-.5.78-1.05.78-1.64s-.22-1.1-.67-1.54c-.45-.44-.97-.66-1.56-.66s-1.12.24-1.58.72l-7.54,7.59v-5.9c0-.73-.22-1.32-.67-1.76-.45-.44-1.06-.66-1.82-.66s-1.35.22-1.78.66c-.44.44-.66,1.02-.66,1.76v14.35c0,.75.22,1.35.66,1.78.44.44,1.03.66,1.78.66s1.38-.22,1.82-.66c.45-.44.67-1.03.67-1.78v-6.33l7.64,7.83c.55.57,1.16.86,1.82.86.61,0,1.13-.22,1.58-.67.45-.45.67-.97.67-1.56s-.23-1.11-.7-1.56l-5.96-6.12Z"/>
  <path class="cls-1" d="m111.6,245.06c1.56,0,2.33-.65,2.33-1.93,0-.61-.2-1.07-.59-1.39-.39-.32-.98-.48-1.74-.48h-9.28c-.73,0-1.3.2-1.69.59-.39.39-.59.96-.59,1.69v14.35c0,.73.2,1.3.59,1.69.39.39.96.59,1.69.59h9.28c.77,0,1.35-.16,1.74-.48.39-.32.59-.79.59-1.39,0-1.29-.78-1.93-2.33-1.93h-6.76v-3.92h6.22c.77,0,1.35-.16,1.74-.48.39-.32.59-.79.59-1.4,0-1.27-.78-1.9-2.33-1.9h-6.22v-3.59h6.76Z"/>
  <path class="cls-1" d="m130.97,254.64c-.43-.61-.86-1.06-1.3-1.37-.44-.31-.95-.5-1.54-.59,1.43-.34,2.54-1.01,3.33-2,.79-.99,1.18-2.2,1.18-3.63,0-1.88-.58-3.31-1.73-4.3-1.15-.99-2.88-1.49-5.16-1.49h-6.73c-.73,0-1.3.2-1.69.59-.39.39-.59.96-.59,1.69v14.35c0,.75.22,1.35.66,1.78.44.44,1.03.66,1.78.66s1.34-.22,1.77-.66c.43-.44.64-1.03.64-1.78v-4.8h1.74c.38,0,.7.08.98.25.28.17.54.43.79.79l3.49,5.09c.27.39.59.69.97.89s.78.29,1.21.29c.63,0,1.17-.19,1.65-.58.47-.38.71-.86.71-1.44,0-.43-.16-.88-.48-1.37l-1.66-2.39Zm-3.66-5.77c-.47.34-1.26.51-2.35.51h-3.43v-4.4h3.43c1.09,0,1.87.17,2.35.52.47.35.71.92.71,1.7s-.24,1.32-.71,1.66Z"/>
  <path class="cls-1" d="m150.6,251.98c-.41-.7-1.11-1.31-2.09-1.84-.98-.53-2.33-.98-4.05-1.36-1.06-.21-1.85-.42-2.39-.63-.54-.21-.9-.42-1.1-.63-.2-.22-.29-.49-.29-.83,0-.57.28-1.03.83-1.38.56-.35,1.29-.52,2.2-.52.66,0,1.27.07,1.84.2.56.13,1.06.31,1.47.54.42.22.67.36.76.42.36.22.63.35.83.42s.41.09.64.09c.43,0,.8-.2,1.11-.59s.47-.86.47-1.39c0-.38-.07-.69-.2-.95-.13-.26-.36-.51-.68-.74-.84-.61-1.77-1.06-2.79-1.34-1.02-.28-2.18-.43-3.49-.43-1.48,0-2.82.26-4.01.79-1.19.53-2.12,1.26-2.8,2.19-.68.93-1.02,1.97-1.02,3.11,0,1,.2,1.86.6,2.56.4.71,1.1,1.32,2.11,1.84,1,.52,2.39.97,4.16,1.34,1.43.29,2.4.58,2.91.87.51.3.76.65.76,1.06,0,.61-.27,1.07-.82,1.38-.54.31-1.35.47-2.4.47-.91,0-1.73-.09-2.45-.27-.72-.18-1.45-.47-2.19-.88-.32-.2-.59-.33-.81-.4-.21-.07-.44-.11-.67-.11-.43,0-.81.2-1.13.59-.32.39-.48.86-.48,1.39,0,.39.07.72.2.97.13.25.35.49.66.72.79.56,1.79.99,3.02,1.3s2.55.47,3.98.47c1.57,0,2.95-.24,4.14-.74,1.19-.49,2.11-1.19,2.78-2.09.66-.9.99-1.94.99-3.12,0-.95-.21-1.77-.62-2.47Z"/>
</svg>