<?xml version="1.0" encoding="UTF-8"?>
<svg id="Layer_1" data-name="Layer 1" xmlns="http://www.w3.org/2000/svg" viewBox="0 0 566.93 202.58">
  <defs>
    <style>
      .cls-1 {
        fill: #fff;
      }
    </style>
  </defs>
  <g>
    <path class="cls-1" d="m203.43,100.71c1.89,0,3.39-.54,4.48-1.62,1.1-1.08,1.65-2.54,1.65-4.38v-11.21h10.35c5.1,0,9.09-1.32,11.97-3.95,2.88-2.64,4.32-6.26,4.32-10.88s-1.43-8.29-4.28-10.91c-2.86-2.62-6.86-3.92-12-3.92h-16.88c-1.8,0-3.19.48-4.15,1.45-.97.97-1.45,2.35-1.45,4.15v35.28c0,1.84.54,3.31,1.61,4.38,1.08,1.08,2.54,1.62,4.38,1.62Zm6.13-37.72h8.7c4.39,0,6.59,1.91,6.59,5.74,0,1.93-.54,3.36-1.62,4.28-1.08.93-2.73,1.39-4.98,1.39h-8.7v-11.41Z"/>
    <path class="cls-1" d="m275.36,99.72c.84.52,1.76.79,2.77.79,1.5,0,2.82-.51,3.99-1.52,1.16-1.01,1.74-2.24,1.74-3.69,0-.79-.19-1.6-.59-2.44l-17.41-35.74c-.57-1.18-1.43-2.1-2.57-2.73-1.14-.64-2.38-.96-3.69-.96s-2.61.32-3.73.96c-1.12.64-1.97,1.55-2.54,2.73l-17.41,35.74c-.39.84-.59,1.65-.59,2.44,0,1.45.61,2.68,1.81,3.69,1.21,1.01,2.56,1.52,4.05,1.52,1.01,0,1.95-.27,2.8-.79.86-.53,1.53-1.32,2.01-2.37l3.04-6.66h21.36l2.97,6.66c.48,1.05,1.14,1.84,1.98,2.37Zm-22.22-18.13l6.59-14.7,6.59,14.7h-13.19Z"/>
    <path class="cls-1" d="m353.56,58.51c0-1.58-.54-2.84-1.61-3.76-1.08-.92-2.34-1.38-3.79-1.38-1.19,0-2.27.33-3.26.99s-1.7,1.6-2.14,2.83l-9.43,26.57-8.97-26.5c-.44-1.27-1.14-2.24-2.11-2.9-.97-.66-2.05-.99-3.23-.99s-2.28.33-3.26.99c-.99.66-1.7,1.6-2.14,2.83l-9.56,25.98-9.03-25.98c-.44-1.27-1.18-2.23-2.21-2.87-1.04-.63-2.16-.95-3.4-.95-1.54,0-2.89.47-4.05,1.42-1.17.94-1.74,2.23-1.74,3.86,0,.79.15,1.63.46,2.5l13.32,35.87c.44,1.23,1.23,2.19,2.37,2.87,1.14.68,2.42,1.02,3.82,1.02s2.62-.34,3.76-1.02c1.14-.68,1.95-1.64,2.44-2.87l8.97-24.47,8.57,24.47c.44,1.23,1.23,2.19,2.37,2.87,1.14.68,2.42,1.02,3.82,1.02s2.69-.34,3.86-1.02c1.16-.68,1.97-1.64,2.4-2.87l13.26-35.87c.35-1.05.52-1.93.52-2.64Z"/>
    <path class="cls-1" d="m394.84,93.94c1.62-2.22,2.44-4.78,2.44-7.68,0-2.33-.51-4.35-1.51-6.07-1.01-1.71-2.73-3.22-5.14-4.52-2.42-1.3-5.74-2.4-9.96-3.33-2.59-.52-4.55-1.04-5.87-1.55-1.32-.51-2.22-1.03-2.71-1.55-.48-.53-.72-1.21-.72-2.05,0-1.41.68-2.54,2.04-3.39,1.36-.85,3.16-1.28,5.41-1.28,1.62,0,3.13.16,4.52.49,1.38.33,2.59.77,3.62,1.32,1.04.55,1.66.89,1.88,1.02.88.53,1.56.87,2.04,1.02.48.15,1.01.23,1.58.23,1.06,0,1.97-.48,2.74-1.45.77-.97,1.15-2.11,1.15-3.43,0-.93-.16-1.7-.49-2.34s-.89-1.24-1.68-1.81c-2.07-1.5-4.35-2.59-6.86-3.3-2.5-.7-5.36-1.05-8.57-1.05-3.65,0-6.93.65-9.86,1.94-2.92,1.3-5.22,3.09-6.89,5.37-1.67,2.29-2.5,4.84-2.5,7.65,0,2.46.49,4.56,1.48,6.3.99,1.74,2.72,3.24,5.18,4.52,2.46,1.27,5.87,2.37,10.22,3.29,3.52.71,5.9,1.42,7.15,2.14,1.25.73,1.88,1.6,1.88,2.61,0,1.49-.67,2.63-2.01,3.39-1.34.77-3.31,1.15-5.9,1.15-2.24,0-4.25-.22-6.03-.66-1.78-.44-3.57-1.16-5.37-2.17-.79-.48-1.45-.81-1.98-.99-.52-.18-1.08-.26-1.65-.26-1.06,0-1.98.48-2.77,1.45s-1.19,2.11-1.19,3.43c0,.97.17,1.76.5,2.38.33.61.87,1.21,1.61,1.78,1.93,1.36,4.41,2.43,7.42,3.2,3.01.77,6.27,1.15,9.79,1.15,3.86,0,7.26-.6,10.19-1.81,2.92-1.21,5.2-2.92,6.82-5.14Z"/>
    <path class="cls-1" d="m455.37,95.23l4.81,4.28c1.01.88,2.13,1.32,3.36,1.32,1.32,0,2.47-.46,3.46-1.39.99-.92,1.48-2,1.48-3.23s-.55-2.31-1.65-3.37l-5.34-4.68c2.46-4,3.91-8.15,4.35-12.47l.06-.72c0-1.36-.45-2.44-1.35-3.23-.9-.79-1.97-1.18-3.2-1.18s-2.32.39-3.26,1.18c-.95.79-1.51,1.91-1.68,3.36-.31,2.29-.99,4.53-2.05,6.73l-6.79-6c5.1-2.95,7.65-6.77,7.65-11.48,0-3.34-1.17-6.01-3.49-8.01-2.33-2-5.47-3-9.43-3-2.82,0-5.31.51-7.48,1.51-2.18,1.01-3.86,2.41-5.04,4.19-1.19,1.78-1.78,3.83-1.78,6.16,0,3.25,1.38,6.35,4.15,9.3-2.95,1.71-5.1,3.62-6.46,5.74-1.36,2.11-2.04,4.53-2.04,7.25s.71,4.9,2.14,6.92c1.43,2.02,3.43,3.59,6,4.71,2.57,1.12,5.51,1.68,8.8,1.68,2.64,0,5.22-.48,7.75-1.45,2.53-.97,4.87-2.35,7.02-4.15Zm-15.89-33.13c.75-.77,1.76-1.15,3.03-1.15,1.06,0,1.93.34,2.61,1.02.68.68,1.02,1.59,1.02,2.73s-.36,2.09-1.09,2.97c-.72.88-1.94,1.74-3.66,2.57-1.14-1.14-1.93-2.09-2.37-2.84-.44-.75-.66-1.49-.66-2.24,0-1.27.38-2.3,1.12-3.06Zm-2.87,28.51c-1.12-.96-1.68-2.26-1.68-3.89,0-2.68,1.18-4.84,3.56-6.46l10.15,9.03c-2.42,1.84-4.92,2.77-7.52,2.77-1.89,0-3.39-.48-4.52-1.45Z"/>
    <path class="cls-1" d="m259.74,132.48c-1.19,0-2.27.33-3.26.99-.99.66-1.7,1.6-2.14,2.83l-9.43,26.57-8.97-26.5c-.44-1.27-1.14-2.24-2.11-2.9-.97-.66-2.05-.99-3.23-.99s-2.28.33-3.26.99c-.99.66-1.7,1.6-2.14,2.83l-9.56,25.98-9.03-25.98c-.44-1.27-1.18-2.23-2.21-2.87-1.03-.63-2.16-.95-3.4-.95-1.54,0-2.89.47-4.05,1.42-1.17.94-1.74,2.23-1.74,3.86,0,.79.15,1.63.46,2.5l13.32,35.87c.44,1.23,1.23,2.19,2.37,2.87,1.14.68,2.42,1.02,3.82,1.02s2.62-.34,3.76-1.02c1.14-.68,1.95-1.64,2.44-2.87l8.97-24.47,8.57,24.47c.44,1.23,1.23,2.19,2.37,2.87,1.14.68,2.42,1.02,3.82,1.02s2.69-.34,3.86-1.02c1.16-.68,1.97-1.64,2.4-2.87l13.26-35.87c.35-1.05.52-1.93.52-2.64,0-1.58-.54-2.84-1.61-3.76-1.08-.92-2.34-1.38-3.79-1.38Z"/>
    <path class="cls-1" d="m309.78,132.61c-1.8,0-3.24.54-4.32,1.61s-1.62,2.52-1.62,4.32v12.46h-18.99v-12.46c0-1.8-.54-3.24-1.62-4.32-1.08-1.08-2.52-1.61-4.32-1.61s-3.25.54-4.32,1.61c-1.08,1.08-1.61,2.52-1.61,4.32v35.28c0,1.84.54,3.31,1.61,4.38,1.08,1.08,2.52,1.62,4.32,1.62s3.24-.55,4.32-1.65c1.08-1.1,1.62-2.55,1.62-4.35v-13.19h18.99v13.19c0,1.84.54,3.31,1.62,4.38,1.08,1.08,2.51,1.62,4.32,1.62s3.24-.55,4.32-1.65c1.08-1.1,1.61-2.55,1.61-4.35v-35.28c0-1.8-.54-3.24-1.61-4.32-1.08-1.08-2.52-1.61-4.32-1.61Z"/>
    <path class="cls-1" d="m331.8,132.61c-1.84,0-3.31.54-4.38,1.61-1.08,1.08-1.61,2.52-1.61,4.32v35.28c0,1.84.54,3.31,1.61,4.38,1.08,1.08,2.54,1.62,4.38,1.62s3.39-.54,4.48-1.62c1.1-1.08,1.65-2.54,1.65-4.38v-35.28c0-1.8-.55-3.24-1.65-4.32-1.1-1.08-2.59-1.61-4.48-1.61Z"/>
    <path class="cls-1" d="m378.29,154.8c-2.42-1.3-5.74-2.4-9.96-3.33-2.59-.52-4.55-1.04-5.87-1.55-1.32-.51-2.22-1.03-2.71-1.55-.48-.53-.72-1.21-.72-2.05,0-1.41.68-2.54,2.04-3.39,1.36-.85,3.16-1.28,5.41-1.28,1.62,0,3.13.16,4.52.49,1.38.33,2.59.77,3.62,1.32,1.03.55,1.66.89,1.88,1.02.88.53,1.56.87,2.04,1.02.48.15,1.01.23,1.58.23,1.06,0,1.97-.48,2.74-1.45s1.15-2.11,1.15-3.43c0-.93-.16-1.7-.49-2.34-.33-.64-.89-1.24-1.68-1.81-2.07-1.5-4.35-2.59-6.86-3.3-2.5-.7-5.36-1.05-8.57-1.05-3.65,0-6.93.65-9.86,1.94-2.92,1.3-5.22,3.09-6.89,5.37-1.67,2.29-2.5,4.84-2.5,7.65,0,2.46.49,4.56,1.48,6.3.99,1.74,2.72,3.24,5.18,4.52,2.46,1.27,5.87,2.37,10.22,3.29,3.52.71,5.9,1.42,7.15,2.14,1.25.73,1.88,1.6,1.88,2.61,0,1.49-.67,2.63-2.01,3.39-1.34.77-3.31,1.15-5.9,1.15-2.24,0-4.25-.22-6.03-.66-1.78-.44-3.57-1.16-5.37-2.17-.79-.48-1.45-.81-1.98-.99-.52-.18-1.08-.26-1.65-.26-1.06,0-1.98.48-2.77,1.45s-1.19,2.11-1.19,3.43c0,.97.17,1.76.5,2.38.33.61.87,1.21,1.61,1.78,1.93,1.36,4.41,2.43,7.42,3.2,3.01.77,6.27,1.15,9.79,1.15,3.86,0,7.26-.6,10.19-1.81,2.92-1.21,5.2-2.92,6.82-5.14,1.62-2.22,2.44-4.78,2.44-7.68,0-2.33-.51-4.35-1.51-6.07-1.01-1.71-2.73-3.22-5.14-4.52Z"/>
    <path class="cls-1" d="m418.04,155.3l13.52-13.26c1.27-1.23,1.91-2.57,1.91-4.02s-.55-2.71-1.65-3.79c-1.1-1.08-2.37-1.61-3.82-1.61s-2.75.59-3.89,1.78l-18.53,18.66v-14.51c0-1.8-.55-3.24-1.65-4.32-1.1-1.08-2.59-1.61-4.48-1.61s-3.31.54-4.38,1.61c-1.08,1.08-1.61,2.52-1.61,4.32v35.28c0,1.84.54,3.31,1.61,4.38,1.08,1.08,2.54,1.62,4.38,1.62s3.39-.54,4.48-1.62c1.1-1.08,1.65-2.54,1.65-4.38v-15.56l18.79,19.25c1.36,1.41,2.86,2.11,4.48,2.11,1.49,0,2.79-.55,3.89-1.65,1.1-1.1,1.65-2.37,1.65-3.82s-.57-2.73-1.71-3.82l-14.64-15.03Z"/>
    <path class="cls-1" d="m469.54,142.31c3.83,0,5.74-1.59,5.74-4.75,0-1.49-.49-2.63-1.45-3.43-.97-.79-2.4-1.19-4.29-1.19h-22.81c-1.8,0-3.19.48-4.15,1.45-.97.97-1.45,2.35-1.45,4.15v35.28c0,1.8.48,3.19,1.45,4.15.96.97,2.35,1.45,4.15,1.45h22.81c1.89,0,3.32-.4,4.29-1.19.96-.79,1.45-1.93,1.45-3.43,0-3.16-1.91-4.75-5.74-4.75h-16.61v-9.63h15.3c1.89,0,3.32-.39,4.28-1.18s1.45-1.93,1.45-3.43c0-3.12-1.91-4.68-5.74-4.68h-15.3v-8.83h16.61Z"/>
    <path class="cls-1" d="m517.15,165.85c-1.05-1.5-2.12-2.62-3.2-3.36-1.08-.75-2.34-1.23-3.79-1.45,3.52-.84,6.24-2.47,8.18-4.91,1.93-2.44,2.9-5.42,2.9-8.94,0-4.61-1.42-8.14-4.25-10.58-2.84-2.44-7.07-3.66-12.7-3.66h-16.55c-1.8,0-3.19.48-4.15,1.45-.97.97-1.45,2.35-1.45,4.15v35.28c0,1.84.54,3.31,1.61,4.38,1.08,1.08,2.54,1.62,4.38,1.62s3.3-.54,4.35-1.62c1.06-1.08,1.58-2.54,1.58-4.38v-11.8h4.28c.93,0,1.73.21,2.41.62.68.42,1.33,1.07,1.94,1.95l8.57,12.52c.66.97,1.45,1.69,2.37,2.18.92.48,1.91.72,2.97.72,1.54,0,2.89-.47,4.05-1.41,1.16-.94,1.74-2.12,1.74-3.53,0-1.05-.39-2.17-1.18-3.36l-4.09-5.87Zm-9-14.18c-1.17.84-3.09,1.25-5.77,1.25h-8.44v-10.81h8.44c2.68,0,4.61.43,5.77,1.28,1.16.86,1.75,2.26,1.75,4.19s-.59,3.25-1.75,4.09Z"/>
    <path class="cls-1" d="m565.41,159.32c-1.01-1.71-2.73-3.22-5.14-4.52-2.42-1.3-5.74-2.4-9.96-3.33-2.59-.52-4.55-1.04-5.87-1.55-1.32-.51-2.22-1.03-2.71-1.55-.48-.53-.72-1.21-.72-2.05,0-1.41.68-2.54,2.04-3.39,1.36-.85,3.16-1.28,5.41-1.28,1.62,0,3.13.16,4.52.49,1.38.33,2.59.77,3.62,1.32,1.03.55,1.66.89,1.88,1.02.88.53,1.56.87,2.04,1.02.48.15,1.01.23,1.58.23,1.06,0,1.97-.48,2.74-1.45s1.15-2.11,1.15-3.43c0-.93-.16-1.7-.49-2.34-.33-.64-.89-1.24-1.68-1.81-2.07-1.5-4.35-2.59-6.86-3.3-2.5-.7-5.36-1.05-8.57-1.05-3.65,0-6.93.65-9.86,1.94-2.92,1.3-5.22,3.09-6.89,5.37-1.67,2.29-2.5,4.84-2.5,7.65,0,2.46.49,4.56,1.48,6.3.99,1.74,2.72,3.24,5.18,4.52,2.46,1.27,5.87,2.37,10.22,3.29,3.52.71,5.9,1.42,7.15,2.14,1.25.73,1.88,1.6,1.88,2.61,0,1.49-.67,2.63-2.01,3.39-1.34.77-3.31,1.15-5.9,1.15-2.24,0-4.25-.22-6.03-.66-1.78-.44-3.57-1.16-5.37-2.17-.79-.48-1.45-.81-1.98-.99-.52-.18-1.08-.26-1.65-.26-1.06,0-1.98.48-2.77,1.45s-1.19,2.11-1.19,3.43c0,.97.17,1.76.5,2.38.33.61.87,1.21,1.61,1.78,1.93,1.36,4.41,2.43,7.42,3.2s6.27,1.15,9.79,1.15c3.86,0,7.26-.6,10.19-1.81,2.92-1.21,5.2-2.92,6.82-5.14,1.62-2.22,2.44-4.78,2.44-7.68,0-2.33-.51-4.35-1.51-6.07Z"/>
  </g>
  <g>
    <path class="cls-1" d="m63.74,102.58c-3.34-1.96-8.87-3.16-12,0,1.59,5.16,1.93,11,2.06,15.64.1,3.42-2.97,13.44-6.59,6.41-2.12-4.11-3.99-9.68-4.82-15.45-.5-.31-1.06-.57-1.71-.78-4.15-1.32-5.94.68-6.07,4.28-.24,6.6,3.46,15.46,6.1,21.29,3.04,6.71,7.28,12.93,12.68,17.77,5.64-5.78,10.07-13.09,13.48-21.29,3.8-9.15,7.35-21.72-3.14-27.87Z"/>
    <path class="cls-1" d="m123.72,0H19.5C8.73,0,0,8.73,0,19.5v163.58C0,193.85,8.73,202.58,19.5,202.58h104.22c10.77,0,19.5-8.73,19.5-19.5V19.5C143.22,8.73,134.49,0,123.72,0Zm-61.32,57.38c7.15-20.84,34.7-48.48,56.62-28.35,1.63,1.5,2,9.98-1.47,9-11.28-3.19-22.21-3.33-32.38,3.27-9.2,5.97-14.28,15.18-19.68,24.36-2.32,3.94-3.71-6.52-3.1-8.27Zm51.82,5.37c-18.22-8.56-30.95.86-42.48,14.79-2.26,2.73-3.13-4.85-2.37-6.32,7.95-15.39,30.88-32.52,45.97-15.35.95,1.08,1.45,8.09-1.12,6.88Zm2.19,82c-2.84,10.47-6.41,21.4-15.21,28.39-14.03,11.13-33.93,7.79-47.58-2.22-8.11,7.01-18.19,11.43-29,8.88-4.46-1.05-5.3-14.31-.36-14.65,6.99-.47,13.12-2.35,18.49-5.29-11.22-15.04-18.23-37.41-16.03-54.95.97-7.72,5.74-17.37,15.17-14.01.8.28,1.53.65,2.22,1.04,1.26-2.73,3.13-5.09,5.76-6.85,13.65-9.15,25.74,8.87,28,20.29,3.48,17.62-2.83,35.82-11.93,50.78-.52.86-1.07,1.71-1.64,2.56,1.84.78,3.76,1.43,5.76,1.91,11.97,2.84,26.38.02,33.28-10.99,9.14-14.57,9.22-35.1,11.61-51.57,1.35-9.33,6.86-5.04,7.22,1.95.77,14.91-1.88,30.36-5.78,44.71Z"/>
  </g>
</svg>