<?xml version="1.0" encoding="UTF-8"?>
<svg id="Layer_1" data-name="Layer 1" xmlns="http://www.w3.org/2000/svg" viewBox="0 0 181.36 283.46">
  <defs>
    <style>
      .cls-1 {
        fill: #0c0c0c;
      }
    </style>
  </defs>
  <path class="cls-1" d="m181.13,139.5c-.64-12.49-10.5-20.17-12.92-3.48-4.27,29.45-4.41,66.17-20.76,92.23-12.35,19.69-38.12,24.73-59.52,19.65-3.59-.85-7.01-2.02-10.31-3.42,1.03-1.52,2.01-3.06,2.94-4.58,16.27-26.75,27.56-59.31,21.34-90.81-4.04-20.43-25.67-52.66-50.08-36.29-4.7,3.15-8.05,7.37-10.3,12.25-1.24-.71-2.55-1.36-3.98-1.87-16.87-6-25.4,11.25-27.13,25.06-3.93,31.38,8.61,71.37,28.67,98.27-9.61,5.26-20.56,8.61-33.06,9.46-8.83.6-7.33,24.31.64,26.2,19.31,4.56,37.36-3.34,51.85-15.89,24.41,17.9,60,23.88,85.08,3.97,15.75-12.5,22.12-32.06,27.2-50.78,6.98-25.68,11.71-53.3,10.33-79.97Zm-156.59,22.59c.23-6.44,3.42-10.03,10.85-7.66,1.16.37,2.16.84,3.05,1.39,1.48,10.32,4.83,20.29,8.62,27.63,6.47,12.56,11.96-5.35,11.78-11.46-.24-8.29-.84-18.73-3.69-27.97,5.6-5.64,15.48-3.5,21.46,0,18.76,10.99,12.42,33.48,5.62,49.84-6.1,14.68-14.02,27.74-24.11,38.08-9.65-8.66-17.25-19.77-22.67-31.78-4.72-10.43-11.33-26.28-10.9-38.08Z"/>
  <path class="cls-1" d="m79.76,78.01c9.66-16.41,18.74-32.87,35.19-43.56,18.18-11.81,37.73-11.56,57.9-5.85,6.2,1.76,5.55-13.42,2.63-16.1-39.21-36-88.48,13.44-101.26,50.7-1.08,3.14,1.41,21.84,5.55,14.8Z"/>
  <path class="cls-1" d="m86.68,87.96c-1.36,2.63.2,16.2,4.24,11.31,20.61-24.92,43.38-41.76,75.96-26.45,4.59,2.16,3.71-10.37,2.01-12.3-26.99-30.71-67.99-.07-82.21,27.45Z"/>
</svg>