<?xml version="1.0" encoding="UTF-8"?>
<svg id="Layer_1" data-name="Layer 1" xmlns="http://www.w3.org/2000/svg" viewBox="0 0 566.93 341.21">
  <defs>
    <style>
      .cls-1 {
        fill: #fff;
      }
    </style>
  </defs>
  <g>
    <path class="cls-1" d="m82.92,133.45c-4.35-2.55-11.54-4.11-15.61,0,2.07,6.72,2.51,14.31,2.68,20.35.13,4.45-3.86,17.48-8.57,8.34-2.75-5.34-5.19-12.6-6.27-20.1-.65-.4-1.37-.74-2.22-1.01-5.41-1.72-7.73.89-7.9,5.57-.31,8.58,4.5,20.11,7.93,27.7,3.95,8.73,9.48,16.82,16.5,23.12,7.34-7.52,13.11-17.03,17.54-27.7,4.95-11.9,9.56-28.26-4.09-36.26Z"/>
    <path class="cls-1" d="m160.96,0H25.37C11.36,0,0,11.36,0,25.37v212.81c0,14.01,11.36,25.37,25.37,25.37h135.59c14.01,0,25.37-11.36,25.37-25.37V25.37C186.33,11.36,174.97,0,160.96,0Zm-79.78,74.66c9.3-27.11,45.15-63.07,73.67-36.89,2.13,1.95,2.6,12.99-1.91,11.71-14.67-4.16-28.89-4.34-42.12,4.25-11.97,7.77-18.57,19.75-25.6,31.69-3.01,5.12-4.82-8.48-4.04-10.77Zm67.42,6.99c-23.7-11.13-40.27,1.12-55.26,19.24-2.94,3.56-4.08-6.31-3.09-8.23,10.35-20.02,40.18-42.31,59.81-19.97,1.24,1.41,1.88,10.52-1.46,8.95Zm2.84,106.69c-3.7,13.62-8.34,27.85-19.79,36.94-18.25,14.49-44.14,10.14-61.9-2.89-10.55,9.13-23.67,14.87-37.72,11.56-5.8-1.37-6.89-18.62-.47-19.06,9.1-.62,17.06-3.05,24.05-6.88-14.59-19.57-23.72-48.66-20.86-71.49,1.26-10.04,7.46-22.6,19.74-18.23,1.04.37,1.99.84,2.89,1.36,1.64-3.55,4.08-6.62,7.5-8.91,17.76-11.91,33.49,11.54,36.43,26.4,4.53,22.92-3.69,46.61-15.52,66.07-.68,1.11-1.39,2.23-2.14,3.34,2.39,1.01,4.89,1.87,7.5,2.49,15.57,3.7,34.32.03,43.3-14.3,11.89-18.96,12-45.67,15.1-67.1,1.76-12.14,8.93-6.56,9.4,2.53,1,19.4-2.44,39.49-7.52,58.17Z"/>
  </g>
  <g>
    <path class="cls-1" d="m1.38,339.67C.46,338.76,0,337.52,0,335.95v-29.99C0,304.42.41,303.24,1.23,302.42s2-1.23,3.53-1.23h14.35c4.37,0,7.77,1.11,10.2,3.34s3.64,5.32,3.64,9.28-1.22,7.01-3.67,9.25c-2.45,2.24-5.84,3.36-10.18,3.36h-8.8v9.53c0,1.57-.47,2.81-1.4,3.73s-2.21,1.37-3.81,1.37-2.81-.46-3.73-1.37Zm16.34-20.99c1.91,0,3.32-.39,4.23-1.18.92-.79,1.38-2,1.38-3.64,0-3.25-1.87-4.88-5.61-4.88h-7.4v9.7h7.4Z"/>
    <path class="cls-1" d="m73.5,336.45c0,1.23-.5,2.28-1.49,3.14-.99.86-2.12,1.29-3.39,1.29-.86,0-1.64-.22-2.36-.67-.71-.45-1.27-1.12-1.68-2.02l-2.52-5.66h-18.16l-2.58,5.66c-.41.9-.98,1.57-1.71,2.02-.73.45-1.52.67-2.38.67-1.27,0-2.42-.43-3.45-1.29-1.03-.86-1.54-1.91-1.54-3.14,0-.67.17-1.36.5-2.07l14.8-30.38c.49-1.01,1.21-1.79,2.16-2.33s2.01-.81,3.17-.81,2.17.27,3.14.81,1.7,1.32,2.19,2.33l14.8,30.38c.34.71.5,1.4.5,2.07Zm-26.12-11.66h11.21l-5.61-12.5-5.61,12.5Z"/>
    <path class="cls-1" d="m125.38,301.64c.84-.56,1.76-.84,2.77-.84,1.23,0,2.31.39,3.22,1.18s1.37,1.85,1.37,3.2c0,.6-.15,1.35-.45,2.24l-11.27,30.5c-.38,1.05-1.06,1.86-2.05,2.44-.99.58-2.08.87-3.28.87s-2.28-.29-3.25-.87c-.97-.58-1.64-1.39-2.02-2.44l-7.29-20.8-7.62,20.8c-.41,1.05-1.1,1.86-2.07,2.44-.97.58-2.04.87-3.2.87s-2.28-.29-3.25-.87c-.97-.58-1.65-1.39-2.02-2.44l-11.32-30.5c-.26-.75-.39-1.46-.39-2.13,0-1.38.49-2.48,1.48-3.28.99-.8,2.14-1.21,3.45-1.21,1.05,0,2.01.27,2.89.81.88.54,1.5,1.36,1.88,2.44l7.68,22.09,8.13-22.09c.37-1.04.98-1.85,1.82-2.41.84-.56,1.77-.84,2.78-.84s1.92.28,2.75.84c.82.56,1.42,1.38,1.8,2.47l7.62,22.54,8.02-22.59c.37-1.04.98-1.85,1.82-2.41Z"/>
    <path class="cls-1" d="m145.06,340.24c-2.56-.65-4.66-1.56-6.31-2.72-.64-.49-1.09-.99-1.37-1.51-.28-.52-.42-1.19-.42-2.02,0-1.12.34-2.09,1.01-2.91s1.46-1.23,2.36-1.23c.49,0,.95.08,1.4.22.45.15,1.01.43,1.68.84,1.53.86,3.06,1.48,4.57,1.85,1.51.38,3.22.56,5.13.56,2.21,0,3.88-.33,5.02-.98,1.14-.65,1.71-1.62,1.71-2.89,0-.86-.53-1.6-1.6-2.21-1.06-.62-3.09-1.22-6.08-1.82-3.7-.79-6.6-1.72-8.69-2.8s-3.56-2.37-4.4-3.84c-.84-1.48-1.26-3.26-1.26-5.35,0-2.39.71-4.56,2.13-6.5s3.37-3.47,5.86-4.57c2.49-1.1,5.28-1.65,8.38-1.65,2.73,0,5.16.3,7.29.9s4.07,1.53,5.83,2.8c.67.49,1.15,1,1.43,1.54.28.54.42,1.21.42,1.99,0,1.12-.33,2.09-.98,2.91-.66.82-1.43,1.23-2.33,1.23-.49,0-.93-.07-1.35-.2s-.99-.42-1.74-.87c-.19-.11-.72-.4-1.6-.87-.88-.47-1.91-.84-3.09-1.12-1.18-.28-2.46-.42-3.84-.42-1.91,0-3.44.36-4.6,1.09-1.16.73-1.74,1.69-1.74,2.89,0,.71.2,1.29.62,1.74.41.45,1.18.89,2.3,1.32,1.12.43,2.79.87,4.99,1.32,3.59.79,6.41,1.73,8.46,2.83,2.05,1.1,3.51,2.38,4.37,3.84.86,1.46,1.29,3.18,1.29,5.16,0,2.47-.69,4.64-2.07,6.53s-3.32,3.35-5.8,4.37c-2.48,1.03-5.37,1.54-8.66,1.54-2.99,0-5.77-.33-8.33-.98Z"/>
    <path class="cls-1" d="m230.46,337.23c0,1.05-.42,1.96-1.26,2.75-.84.79-1.82,1.18-2.94,1.18-1.05,0-2-.38-2.86-1.12l-4.09-3.64c-1.83,1.53-3.82,2.71-5.97,3.53-2.15.82-4.34,1.23-6.58,1.23-2.8,0-5.3-.48-7.49-1.43-2.18-.95-3.89-2.29-5.1-4.01-1.21-1.72-1.82-3.68-1.82-5.89,0-2.32.58-4.37,1.74-6.17s2.99-3.42,5.5-4.88c-2.36-2.5-3.53-5.14-3.53-7.91,0-1.98.5-3.73,1.51-5.24,1.01-1.51,2.44-2.7,4.29-3.56,1.85-.86,3.97-1.29,6.36-1.29,3.36,0,6.03.85,8.02,2.55,1.98,1.7,2.97,3.97,2.97,6.81,0,4-2.17,7.25-6.5,9.75l5.77,5.1c.9-1.87,1.48-3.78,1.74-5.72.15-1.23.62-2.19,1.43-2.86s1.73-1.01,2.78-1.01,1.95.34,2.72,1.01c.76.67,1.15,1.59,1.15,2.75l-.06.62c-.37,3.66-1.61,7.19-3.7,10.59l4.54,3.98c.93.9,1.4,1.85,1.4,2.86Zm-16.87-5.89l-8.64-7.68c-2.02,1.38-3.03,3.22-3.03,5.5,0,1.38.48,2.48,1.43,3.31.95.82,2.23,1.23,3.84,1.23,2.2,0,4.33-.79,6.39-2.36Zm-7.79-23.12c-.64.65-.95,1.52-.95,2.61,0,.64.19,1.27.56,1.91s1.05,1.44,2.02,2.41c1.46-.71,2.49-1.44,3.11-2.19.62-.75.92-1.59.92-2.52s-.29-1.75-.87-2.33c-.58-.58-1.32-.87-2.21-.87-1.08,0-1.94.33-2.58.98Z"/>
    <path class="cls-1" d="m302.98,301.64c.84-.56,1.76-.84,2.77-.84,1.23,0,2.31.39,3.22,1.18s1.37,1.85,1.37,3.2c0,.6-.15,1.35-.45,2.24l-11.27,30.5c-.38,1.05-1.06,1.86-2.05,2.44-.99.58-2.08.87-3.28.87s-2.28-.29-3.25-.87c-.97-.58-1.64-1.39-2.02-2.44l-7.29-20.8-7.62,20.8c-.41,1.05-1.1,1.86-2.07,2.44-.97.58-2.04.87-3.2.87s-2.28-.29-3.25-.87c-.97-.58-1.65-1.39-2.02-2.44l-11.32-30.5c-.26-.75-.39-1.46-.39-2.13,0-1.38.49-2.48,1.48-3.28s2.14-1.21,3.45-1.21c1.05,0,2.01.27,2.89.81.88.54,1.5,1.36,1.88,2.44l7.68,22.09,8.13-22.09c.37-1.04.98-1.85,1.82-2.41.84-.56,1.77-.84,2.78-.84s1.92.28,2.75.84c.82.56,1.42,1.38,1.8,2.47l7.62,22.54,8.02-22.59c.37-1.04.98-1.85,1.82-2.41Z"/>
    <path class="cls-1" d="m351.97,302.28c.92.92,1.37,2.14,1.37,3.67v29.99c0,1.53-.46,2.77-1.37,3.7-.92.93-2.14,1.4-3.67,1.4s-2.75-.46-3.67-1.37-1.37-2.16-1.37-3.73v-11.21h-16.14v11.21c0,1.53-.46,2.77-1.37,3.7-.92.93-2.14,1.4-3.67,1.4s-2.76-.46-3.67-1.37c-.92-.92-1.38-2.16-1.38-3.73v-29.99c0-1.53.46-2.75,1.38-3.67.91-.92,2.14-1.37,3.67-1.37s2.76.46,3.67,1.37c.91.92,1.37,2.14,1.37,3.67v10.6h16.14v-10.6c0-1.53.46-2.75,1.37-3.67s2.14-1.37,3.67-1.37,2.76.46,3.67,1.37Z"/>
    <path class="cls-1" d="m363.29,339.67c-.92-.92-1.38-2.16-1.38-3.73v-29.99c0-1.53.46-2.75,1.38-3.67.91-.92,2.16-1.37,3.73-1.37s2.88.46,3.81,1.37,1.4,2.14,1.4,3.67v29.99c0,1.57-.47,2.81-1.4,3.73s-2.21,1.37-3.81,1.37-2.81-.46-3.73-1.37Z"/>
    <path class="cls-1" d="m387.34,340.24c-2.56-.65-4.66-1.56-6.31-2.72-.64-.49-1.09-.99-1.37-1.51-.28-.52-.42-1.19-.42-2.02,0-1.12.34-2.09,1.01-2.91s1.46-1.23,2.36-1.23c.49,0,.95.08,1.4.22.45.15,1.01.43,1.68.84,1.53.86,3.06,1.48,4.57,1.85,1.51.38,3.22.56,5.13.56,2.21,0,3.88-.33,5.02-.98,1.14-.65,1.71-1.62,1.71-2.89,0-.86-.53-1.6-1.6-2.21-1.06-.62-3.09-1.22-6.08-1.82-3.7-.79-6.6-1.72-8.69-2.8s-3.56-2.37-4.4-3.84c-.84-1.48-1.26-3.26-1.26-5.35,0-2.39.71-4.56,2.13-6.5s3.37-3.47,5.86-4.57c2.49-1.1,5.28-1.65,8.38-1.65,2.73,0,5.16.3,7.29.9s4.07,1.53,5.83,2.8c.67.49,1.15,1,1.43,1.54.28.54.42,1.21.42,1.99,0,1.12-.33,2.09-.98,2.91-.66.82-1.43,1.23-2.33,1.23-.49,0-.93-.07-1.35-.2s-.99-.42-1.74-.87c-.19-.11-.72-.4-1.6-.87-.88-.47-1.91-.84-3.09-1.12-1.18-.28-2.46-.42-3.84-.42-1.91,0-3.44.36-4.6,1.09-1.16.73-1.74,1.69-1.74,2.89,0,.71.2,1.29.62,1.74.41.45,1.18.89,2.3,1.32,1.12.43,2.79.87,4.99,1.32,3.59.79,6.41,1.73,8.46,2.83,2.05,1.1,3.51,2.38,4.37,3.84.86,1.46,1.29,3.18,1.29,5.16,0,2.47-.69,4.64-2.07,6.53s-3.32,3.35-5.8,4.37c-2.48,1.03-5.37,1.54-8.66,1.54-2.99,0-5.77-.33-8.33-.98Z"/>
    <path class="cls-1" d="m454.25,336.23c0,1.23-.47,2.32-1.4,3.25s-2.04,1.4-3.31,1.4c-1.38,0-2.65-.6-3.81-1.79l-15.98-16.37v13.23c0,1.57-.47,2.81-1.4,3.73s-2.21,1.37-3.81,1.37-2.81-.46-3.73-1.37c-.92-.92-1.38-2.16-1.38-3.73v-29.99c0-1.53.46-2.75,1.38-3.67.91-.92,2.16-1.37,3.73-1.37s2.88.46,3.81,1.37,1.4,2.14,1.4,3.67v12.33l15.75-15.86c.97-1.01,2.07-1.51,3.31-1.51s2.32.46,3.25,1.37,1.4,1.99,1.4,3.22-.54,2.38-1.63,3.42l-11.49,11.27,12.45,12.78c.97.93,1.46,2.02,1.46,3.25Z"/>
    <path class="cls-1" d="m461.2,339.48c-.82-.82-1.23-2-1.23-3.53v-29.99c0-1.53.41-2.71,1.23-3.53s2-1.23,3.53-1.23h19.4c1.61,0,2.82.34,3.64,1.01.82.67,1.23,1.64,1.23,2.91,0,2.69-1.63,4.04-4.88,4.04h-14.13v7.51h13.01c3.25,0,4.88,1.33,4.88,3.98,0,1.27-.41,2.24-1.23,2.92-.82.67-2.04,1.01-3.64,1.01h-13.01v8.18h14.13c3.25,0,4.88,1.35,4.88,4.04,0,1.27-.41,2.24-1.23,2.92-.82.67-2.04,1.01-3.64,1.01h-19.4c-1.53,0-2.71-.41-3.53-1.23Z"/>
    <path class="cls-1" d="m529.09,337.01c0,1.2-.5,2.19-1.49,3s-2.14,1.21-3.45,1.21c-.9,0-1.74-.2-2.52-.62-.79-.41-1.46-1.03-2.02-1.85l-7.29-10.65c-.52-.75-1.07-1.3-1.65-1.65-.58-.35-1.26-.53-2.05-.53h-3.64v10.04c0,1.57-.45,2.81-1.34,3.73-.9.92-2.13,1.37-3.7,1.37s-2.81-.46-3.73-1.37c-.92-.92-1.38-2.16-1.38-3.73v-29.99c0-1.53.41-2.71,1.23-3.53s2-1.23,3.53-1.23h14.07c4.78,0,8.38,1.04,10.79,3.11,2.41,2.07,3.62,5.08,3.62,9,0,2.99-.82,5.52-2.47,7.6-1.64,2.07-3.96,3.47-6.95,4.18,1.23.19,2.31.6,3.22,1.23.92.64,1.82,1.59,2.72,2.86l3.48,4.99c.67,1.01,1.01,1.96,1.01,2.86Zm-12.14-19.9c.99-.71,1.48-1.87,1.48-3.48s-.49-2.83-1.48-3.56c-.99-.73-2.63-1.09-4.91-1.09h-7.18v9.19h7.18c2.28,0,3.91-.35,4.91-1.07Z"/>
    <path class="cls-1" d="m542.07,340.24c-2.56-.65-4.66-1.56-6.31-2.72-.64-.49-1.09-.99-1.37-1.51-.28-.52-.42-1.19-.42-2.02,0-1.12.34-2.09,1.01-2.91s1.46-1.23,2.36-1.23c.49,0,.95.08,1.4.22.45.15,1.01.43,1.68.84,1.53.86,3.06,1.48,4.57,1.85,1.51.38,3.22.56,5.13.56,2.21,0,3.88-.33,5.02-.98,1.14-.65,1.71-1.62,1.71-2.89,0-.86-.53-1.6-1.6-2.21-1.06-.62-3.09-1.22-6.08-1.82-3.7-.79-6.6-1.72-8.69-2.8s-3.56-2.37-4.4-3.84c-.84-1.48-1.26-3.26-1.26-5.35,0-2.39.71-4.56,2.13-6.5s3.37-3.47,5.86-4.57c2.49-1.1,5.28-1.65,8.38-1.65,2.73,0,5.16.3,7.29.9s4.07,1.53,5.83,2.8c.67.49,1.15,1,1.43,1.54.28.54.42,1.21.42,1.99,0,1.12-.33,2.09-.98,2.91-.66.82-1.43,1.23-2.33,1.23-.49,0-.93-.07-1.35-.2s-.99-.42-1.74-.87c-.19-.11-.72-.4-1.6-.87-.88-.47-1.91-.84-3.09-1.12-1.18-.28-2.46-.42-3.84-.42-1.91,0-3.44.36-4.6,1.09-1.16.73-1.74,1.69-1.74,2.89,0,.71.2,1.29.62,1.74.41.45,1.18.89,2.3,1.32,1.12.43,2.79.87,4.99,1.32,3.59.79,6.41,1.73,8.46,2.83,2.05,1.1,3.51,2.38,4.37,3.84.86,1.46,1.29,3.18,1.29,5.16,0,2.47-.69,4.64-2.07,6.53s-3.32,3.35-5.8,4.37c-2.48,1.03-5.37,1.54-8.66,1.54-2.99,0-5.77-.33-8.33-.98Z"/>
  </g>
</svg>