<?xml version="1.0" encoding="UTF-8"?>
<svg id="Layer_1" data-name="Layer 1" xmlns="http://www.w3.org/2000/svg" viewBox="0 0 200.4 283.46">
  <defs>
    <style>
      .cls-1 {
        fill: #fff;
      }
    </style>
  </defs>
  <path class="cls-1" d="m89.18,143.53c-4.67-2.74-12.41-4.42-16.79,0,2.23,7.23,2.7,15.39,2.89,21.88.14,4.79-4.15,18.8-9.22,8.97-2.96-5.75-5.58-13.55-6.74-21.62-.69-.43-1.48-.8-2.39-1.09-5.81-1.85-8.31.96-8.49,5.99-.34,9.23,4.84,21.63,8.53,29.79,4.25,9.39,10.19,18.09,17.74,24.87,7.89-8.09,14.09-18.31,18.87-29.8,5.32-12.8,10.28-30.39-4.4-39Z"/>
  <path class="cls-1" d="m173.11,0H27.29C12.22,0,0,12.22,0,27.29v228.89C0,271.25,12.22,283.46,27.29,283.46h145.83c15.07,0,27.29-12.22,27.29-27.29V27.29C200.4,12.22,188.19,0,173.11,0Zm-85.8,80.3c10-29.15,48.56-67.84,79.23-39.67,2.29,2.1,2.8,13.97-2.05,12.6-15.78-4.47-31.08-4.67-45.3,4.57-12.87,8.36-19.98,21.24-27.53,34.08-3.24,5.51-5.19-9.12-4.34-11.58Zm72.51,7.52c-25.49-11.98-43.31,1.2-59.43,20.7-3.16,3.83-4.39-6.79-3.32-8.85,11.13-21.53,43.21-45.5,64.32-21.48,1.33,1.51,2.02,11.32-1.57,9.63Zm3.06,114.74c-3.98,14.65-8.97,29.95-21.29,39.73-19.63,15.58-47.47,10.9-66.57-3.11-11.34,9.81-25.46,16-40.57,12.43-6.24-1.47-7.41-20.03-.5-20.5,9.79-.66,18.35-3.28,25.87-7.4-15.69-21.05-25.51-52.34-22.43-76.89,1.35-10.8,8.03-24.3,21.23-19.61,1.12.4,2.14.91,3.11,1.46,1.77-3.81,4.38-7.12,8.06-9.58,19.1-12.81,36.02,12.41,39.18,28.4,4.87,24.65-3.96,50.13-16.69,71.05-.73,1.2-1.5,2.39-2.3,3.59,2.58,1.09,5.25,2.01,8.06,2.67,16.74,3.97,36.91.03,46.57-15.38,12.79-20.39,12.9-49.12,16.25-72.16,1.89-13.05,9.6-7.05,10.11,2.72,1.08,20.86-2.63,42.48-8.09,62.57Z"/>
</svg>