<?xml version="1.0" encoding="UTF-8"?>
<svg id="Layer_1" data-name="Layer 1" xmlns="http://www.w3.org/2000/svg" viewBox="0 0 566.93 292.82">
  <defs>
    <style>
      .cls-1 {
        fill: #fff;
      }
    </style>
  </defs>
  <path class="cls-1" d="m1.37,291.26s0-.01-.01-.01c0,0-.01,0-.02-.01l.03.03Z"/>
  <path class="cls-1" d="m29.3,256.1c-2.42-2.23-5.81-3.33-10.19-3.33H4.76c-1.53,0-2.69.43-3.52,1.24S0,255.99,0,257.52v30c0,1.58.45,2.81,1.36,3.72.91.9,2.12,1.36,3.72,1.36s2.88-.46,3.82-1.37c.94-.91,1.4-2.18,1.4-3.74v-9.52h8.79c4.36,0,7.74-1.13,10.19-3.36,2.45-2.23,3.68-5.3,3.68-9.25s-1.24-7.04-3.66-9.27Zm-7.37,12.98c-.91.78-2.31,1.18-4.22,1.18h-7.42v-9.7h7.39c3.74,0,5.62,1.61,5.62,4.87,0,1.67-.46,2.88-1.37,3.66Z"/>
  <path class="cls-1" d="m72.96,285.96l-14.79-30.38c-.48-1.02-1.21-1.8-2.18-2.34s-1.99-.81-3.15-.81-2.23.24-3.17.81c-.94.56-1.67,1.32-2.15,2.34l-14.79,30.38c-.35.7-.51,1.4-.51,2.07,0,1.24.51,2.29,1.53,3.15,1.02.86,2.18,1.29,3.44,1.29.86,0,1.67-.22,2.39-.67.73-.46,1.32-1.13,1.72-2.02l2.58-5.67h18.17l2.53,5.67c.4.89.97,1.56,1.67,2.02.73.46,1.51.67,2.37.67,1.26,0,2.39-.43,3.39-1.29.99-.86,1.48-1.91,1.48-3.15h-.03c0-.67-.19-1.37-.51-2.07Zm-25.57-9.6l5.59-12.5,5.59,12.5h-11.18Z"/>
  <path class="cls-1" d="m128.13,252.39c-.99,0-1.94.27-2.77.83h-.05c-.86.56-1.45,1.37-1.83,2.42l-8.01,22.58-7.61-22.53c-.38-1.1-.97-1.91-1.8-2.47-.81-.56-1.75-.83-2.74-.83s-1.94.27-2.77.83c-.83.56-1.45,1.37-1.83,2.42l-8.12,22.1-7.69-22.1c-.38-1.1-.99-1.91-1.88-2.45-.86-.54-1.83-.81-2.88-.81-1.29,0-2.45.4-3.44,1.21-.99.81-1.48,1.91-1.48,3.28,0,.67.13,1.37.4,2.12l11.32,30.49c.38,1.05,1.05,1.88,2.02,2.45.97.56,2.1.86,3.25.86s2.23-.27,3.2-.86c.97-.59,1.67-1.4,2.07-2.45l7.63-20.81,7.29,20.81c.38,1.05,1.05,1.88,2.02,2.45.97.56,2.04.86,3.25.86s2.29-.27,3.28-.86c.99-.59,1.67-1.4,2.04-2.45l11.26-30.49c.3-.89.46-1.64.46-2.23,0-1.34-.46-2.42-1.37-3.2-.91-.78-1.99-1.18-3.23-1.18Z"/>
  <path class="cls-1" d="m164.26,271.34c-2.07-1.1-4.89-2.04-8.47-2.82-2.2-.46-3.87-.89-5-1.32-1.1-.43-1.88-.86-2.29-1.32-.4-.46-.62-1.05-.62-1.75,0-1.18.59-2.15,1.75-2.88,1.16-.73,2.69-1.1,4.6-1.1,1.4,0,2.66.16,3.84.43,1.18.3,2.2.67,3.09,1.13.86.46,1.4.75,1.59.86.75.43,1.34.73,1.75.86.4.13.86.19,1.34.19.91,0,1.69-.4,2.34-1.24.65-.81.97-1.77.97-2.9,0-.78-.16-1.45-.43-1.99s-.75-1.05-1.42-1.53c-1.77-1.26-3.71-2.2-5.83-2.8-2.12-.59-4.57-.89-7.29-.89-3.12,0-5.91.56-8.39,1.67-2.5,1.1-4.44,2.63-5.86,4.57-1.42,1.94-2.12,4.11-2.12,6.51,0,2.1.43,3.87,1.26,5.35.86,1.48,2.31,2.77,4.41,3.84,2.1,1.08,4.97,2.02,8.68,2.8,2.98.59,5,1.21,6.08,1.83,1.05.62,1.59,1.34,1.59,2.2,0,1.26-.59,2.23-1.72,2.88-1.16.67-2.82.99-5.03.99-1.91,0-3.63-.19-5.13-.56-1.51-.38-3.04-.99-4.57-1.85-.65-.4-1.21-.67-1.67-.83-.46-.13-.91-.22-1.4-.22-.91,0-1.67.43-2.37,1.24-.7.81-1.02,1.77-1.02,2.9,0,.83.16,1.51.43,2.02.27.51.73,1.02,1.37,1.51,1.67,1.16,3.76,2.07,6.32,2.72h.03c2.58.65,5.35.97,8.33.97,3.28,0,6.18-.51,8.66-1.53,2.5-1.05,4.44-2.5,5.81-4.38s2.07-4.06,2.07-6.53c0-1.99-.43-3.71-1.29-5.16-.86-1.45-2.34-2.74-4.38-3.84Z"/>
  <path class="cls-1" d="m224.53,281.98c2.1-3.39,3.33-6.94,3.71-10.59l.05-.62c0-1.16-.4-2.07-1.16-2.74-.75-.7-1.67-1.02-2.72-1.02s-1.96.35-2.77,1.02c-.81.67-1.26,1.61-1.42,2.85-.27,1.96-.86,3.84-1.75,5.73l-5.78-5.11c4.33-2.5,6.51-5.75,6.51-9.76,0-2.82-.99-5.11-2.98-6.8s-4.65-2.55-8.01-2.55c-2.39,0-4.52.43-6.37,1.29-1.83.86-3.25,2.04-4.27,3.55-.99,1.51-1.51,3.25-1.51,5.24,0,2.77,1.16,5.4,3.52,7.9-2.5,1.45-4.33,3.09-5.48,4.87-1.16,1.77-1.75,3.84-1.75,6.16s.62,4.17,1.83,5.89c1.21,1.72,2.93,3.06,5.11,4.01,2.18.94,4.68,1.42,7.47,1.42,2.23,0,4.44-.4,6.59-1.24,2.15-.81,4.14-1.99,5.97-3.52l4.09,3.66c.86.75,1.8,1.13,2.85,1.13,1.1,0,2.1-.4,2.93-1.18.83-.78,1.26-1.69,1.26-2.74h.03c0-.99-.46-1.96-1.4-2.85l-4.54-3.98Zm-18.76-22.18l.03.03c.65-.67,1.51-.99,2.58-.99.89,0,1.61.3,2.2.86.56.59.86,1.4.86,2.34s-.3,1.77-.91,2.53c-.62.73-1.67,1.48-3.12,2.18-.97-.97-1.64-1.77-2.02-2.42-.38-.65-.56-1.26-.56-1.91,0-1.08.3-1.96.94-2.61Zm1.4,25.46c-1.61,0-2.9-.4-3.84-1.24-.94-.83-1.42-1.94-1.42-3.31,0-2.26,1.02-4.11,3.04-5.48l8.61,7.67c-2.06,1.58-4.18,2.35-6.38,2.35Z"/>
  <path class="cls-1" d="m305.72,252.39c-.99,0-1.94.27-2.77.83h-.05c-.86.56-1.45,1.37-1.83,2.42l-8.01,22.58-7.61-22.53c-.38-1.1-.97-1.91-1.8-2.47-.81-.56-1.75-.83-2.74-.83s-1.94.27-2.77.83c-.83.56-1.45,1.37-1.83,2.42l-8.12,22.1-7.69-22.1c-.38-1.1-.99-1.91-1.88-2.45-.86-.54-1.83-.81-2.88-.81-1.29,0-2.45.4-3.44,1.21s-1.48,1.91-1.48,3.28c0,.67.13,1.37.4,2.12l11.32,30.49c.38,1.05,1.05,1.88,2.02,2.45.97.56,2.1.86,3.25.86s2.23-.27,3.2-.86c.97-.59,1.67-1.4,2.07-2.45l7.63-20.81,7.29,20.81c.38,1.05,1.05,1.88,2.02,2.45.97.56,2.04.86,3.25.86s2.29-.27,3.28-.86c.99-.59,1.67-1.4,2.04-2.45l11.26-30.49c.3-.89.46-1.64.46-2.23,0-1.34-.46-2.42-1.37-3.2-.91-.78-1.99-1.18-3.23-1.18Z"/>
  <path class="cls-1" d="m348.25,252.49c-1.53,0-2.77.43-3.68,1.37-.91.94-1.37,2.15-1.37,3.68v10.59h-16.13v-10.59c0-1.53-.46-2.77-1.37-3.68-.91-.91-2.12-1.37-3.68-1.37s-2.77.46-3.68,1.37c-.91.94-1.37,2.15-1.37,3.68v30c0,1.59.46,2.82,1.37,3.74.91.91,2.15,1.37,3.68,1.37s2.77-.46,3.68-1.4c.91-.94,1.37-2.18,1.37-3.71v-11.21h16.13v11.21c0,1.59.43,2.82,1.37,3.74.94.91,2.15,1.37,3.68,1.37s2.77-.46,3.68-1.4c.91-.94,1.37-2.18,1.37-3.71v-30c0-1.53-.46-2.77-1.37-3.68-.91-.91-2.15-1.37-3.68-1.37Z"/>
  <path class="cls-1" d="m366.99,252.47c-1.59,0-2.82.46-3.74,1.37-.91.94-1.37,2.15-1.37,3.68v30c0,1.59.46,2.82,1.37,3.74s2.12,1.37,3.74,1.37,2.88-.46,3.82-1.37,1.4-2.18,1.4-3.74v-30c0-1.53-.46-2.77-1.4-3.68s-2.23-1.37-3.82-1.37Z"/>
  <path class="cls-1" d="m406.54,271.34c-2.07-1.1-4.89-2.04-8.47-2.82-2.2-.46-3.87-.89-5-1.32-1.1-.43-1.88-.86-2.29-1.32-.4-.46-.62-1.05-.62-1.75,0-1.18.59-2.15,1.75-2.88,1.16-.73,2.69-1.1,4.6-1.1,1.4,0,2.66.16,3.84.43,1.18.3,2.2.67,3.09,1.13.86.46,1.4.75,1.59.86.75.43,1.34.73,1.75.86.4.13.86.19,1.34.19.91,0,1.69-.4,2.34-1.24.65-.81.97-1.77.97-2.9,0-.78-.16-1.45-.43-1.99-.27-.54-.75-1.05-1.42-1.53-1.77-1.26-3.71-2.2-5.83-2.8-2.12-.59-4.57-.89-7.29-.89-3.12,0-5.91.56-8.39,1.67-2.5,1.1-4.44,2.63-5.86,4.57-1.42,1.94-2.12,4.11-2.12,6.51,0,2.1.43,3.87,1.26,5.35.86,1.48,2.31,2.77,4.41,3.84,2.1,1.08,4.97,2.02,8.68,2.8,2.98.59,5,1.21,6.08,1.83,1.05.62,1.59,1.34,1.59,2.2,0,1.26-.59,2.23-1.72,2.88-1.16.67-2.82.99-5.03.99-1.91,0-3.63-.19-5.13-.56-1.51-.38-3.04-.99-4.57-1.85-.65-.4-1.21-.67-1.67-.83-.46-.13-.91-.22-1.4-.22-.91,0-1.67.43-2.37,1.24-.7.81-1.02,1.77-1.02,2.9,0,.83.16,1.51.43,2.02.27.51.73,1.02,1.37,1.51,1.67,1.16,3.76,2.07,6.32,2.72h.03c2.58.65,5.35.97,8.33.97,3.28,0,6.18-.51,8.66-1.53,2.5-1.05,4.44-2.5,5.81-4.38s2.07-4.06,2.07-6.53c0-1.99-.43-3.71-1.29-5.16-.86-1.45-2.34-2.74-4.38-3.84Z"/>
  <path class="cls-1" d="m440.3,271.77l11.51-11.26c1.08-1.05,1.61-2.18,1.61-3.41s-.46-2.31-1.4-3.23c-.94-.91-2.02-1.37-3.25-1.37s-2.34.48-3.31,1.51l-15.75,15.86v-12.34c0-1.53-.46-2.77-1.4-3.68-.94-.91-2.23-1.37-3.82-1.37s-2.82.46-3.74,1.37c-.91.94-1.37,2.15-1.37,3.68v30c0,1.59.46,2.82,1.37,3.74.91.91,2.12,1.37,3.74,1.37s2.88-.46,3.82-1.37c.94-.91,1.4-2.18,1.4-3.74v-13.23l15.97,16.37c1.16,1.21,2.45,1.8,3.82,1.8,1.26,0,2.37-.46,3.31-1.4.94-.94,1.4-2.02,1.4-3.25v-.03c0-1.24-.48-2.31-1.45-3.25l-12.45-12.77Z"/>
  <path class="cls-1" d="m461.17,291.04s0-.01-.01-.01c0,0-.01,0-.02-.01l.03.03Z"/>
  <path class="cls-1" d="m484.1,260.72c3.25,0,4.87-1.34,4.87-4.03,0-1.26-.4-2.23-1.24-2.9-.83-.7-2.04-1.02-3.66-1.02h-19.38c-1.53,0-2.69.43-3.52,1.24-.83.81-1.24,1.99-1.24,3.52v30c0,1.52.4,2.68,1.23,3.51.81.82,1.98,1.22,3.51,1.22h19.38c1.61,0,2.82-.35,3.66-1.02s1.24-1.64,1.24-2.9c0-2.69-1.61-4.03-4.87-4.03h-14.11v-8.17h13.01c1.61,0,2.82-.35,3.66-1.02s1.24-1.64,1.24-2.9c0-2.66-1.61-3.98-4.87-3.98h-13.01v-7.5h14.11Z"/>
  <path class="cls-1" d="m527.97,285.75l-3.47-5c-.89-1.26-1.8-2.2-2.72-2.85-.91-.65-1.99-1.05-3.23-1.24,2.98-.7,5.3-2.1,6.94-4.17,1.64-2.1,2.47-4.62,2.47-7.61,0-3.93-1.21-6.94-3.6-9.01s-6-3.12-10.78-3.12h-14.06c-1.53,0-2.69.43-3.52,1.24s-1.24,1.99-1.24,3.52v30c0,1.59.46,2.82,1.37,3.74.91.91,2.15,1.37,3.74,1.37s2.82-.46,3.71-1.37c.89-.91,1.34-2.18,1.34-3.74v-10.03h3.66c.78,0,1.45.19,2.04.54.59.38,1.16.91,1.67,1.67l7.29,10.65c.56.83,1.24,1.45,2.02,1.85.78.4,1.64.62,2.53.62,1.29,0,2.45-.4,3.44-1.21s1.48-1.8,1.48-3.01h-.05c0-.89-.35-1.83-1.02-2.85Zm-11.05-17.04c-.99.73-2.63,1.08-4.92,1.08h-7.18v-9.19h7.18c2.29,0,3.92.38,4.92,1.1.99.73,1.48,1.94,1.48,3.55s-.48,2.77-1.48,3.47Z"/>
  <path class="cls-1" d="m565.64,275.18c-.86-1.45-2.34-2.74-4.38-3.84-2.07-1.1-4.89-2.04-8.47-2.82-2.2-.46-3.87-.89-5-1.32-1.1-.43-1.88-.86-2.29-1.32-.4-.46-.62-1.05-.62-1.75,0-1.18.59-2.15,1.75-2.88,1.16-.73,2.69-1.1,4.6-1.1,1.4,0,2.66.16,3.84.43,1.18.3,2.2.67,3.09,1.13.86.46,1.4.75,1.59.86.75.43,1.34.73,1.75.86.4.13.86.19,1.34.19.91,0,1.69-.4,2.34-1.24.65-.81.97-1.77.97-2.9,0-.78-.16-1.45-.43-1.99-.27-.54-.75-1.05-1.42-1.53-1.77-1.26-3.71-2.2-5.83-2.8-2.12-.59-4.57-.89-7.29-.89-3.12,0-5.91.56-8.39,1.67-2.5,1.1-4.44,2.63-5.86,4.57-1.42,1.94-2.12,4.11-2.12,6.51,0,2.1.43,3.87,1.26,5.35.86,1.48,2.31,2.77,4.41,3.84,2.1,1.08,4.97,2.02,8.68,2.8,2.98.59,5,1.21,6.08,1.83,1.05.62,1.59,1.34,1.59,2.2,0,1.26-.59,2.23-1.72,2.88-1.16.67-2.82.99-5.03.99-1.91,0-3.63-.19-5.13-.56s-3.04-.99-4.57-1.85c-.65-.4-1.21-.67-1.67-.83-.46-.13-.91-.22-1.4-.22-.91,0-1.67.43-2.37,1.24-.7.81-1.02,1.77-1.02,2.9,0,.83.16,1.51.43,2.02.27.51.73,1.02,1.37,1.51,1.67,1.16,3.76,2.07,6.32,2.72h.03c2.58.65,5.35.97,8.33.97,3.28,0,6.18-.51,8.66-1.53,2.5-1.05,4.44-2.5,5.81-4.38s2.07-4.06,2.07-6.53c0-1.99-.43-3.71-1.29-5.16Z"/>
  <path class="cls-1" d="m275.97,97.61c-3.18-1.86-8.44-3.01-11.42,0,1.52,4.91,1.83,10.47,1.96,14.88.1,3.25-2.82,12.79-6.27,6.1-2.01-3.91-3.8-9.21-4.59-14.7-.47-.29-1.01-.54-1.62-.74-3.95-1.26-5.65.65-5.78,4.08-.23,6.28,3.29,14.71,5.8,20.26,2.89,6.39,6.93,12.3,12.07,16.91,5.37-5.5,9.59-12.45,12.83-20.26,3.62-8.71,6.99-20.67-2.99-26.52Z"/>
  <path class="cls-1" d="m351.61,174.22V18.56C351.61,8.31,343.3,0,333.05,0h-99.17C223.63,0,215.32,8.31,215.32,18.56v155.66c0,10.25,8.31,18.56,18.56,18.56h99.17c10.25,0,18.56-8.31,18.56-18.56Zm-76.91-119.61c6.8-19.83,33.02-46.14,53.89-26.98,1.55,1.43,1.9,9.5-1.4,8.57-10.73-3.04-21.13-3.17-30.81,3.11-8.75,5.69-13.59,14.45-18.72,23.18-2.2,3.74-3.53-6.21-2.95-7.87Zm49.31,5.11c-17.33-8.14-29.45.82-40.42,14.08-2.15,2.6-2.98-4.62-2.26-6.02,7.57-14.64,29.39-30.95,43.75-14.61.9,1.03,1.38,7.7-1.07,6.55Zm2.08,78.04c-2.71,9.96-6.1,20.37-14.48,27.02-13.35,10.6-32.29,7.41-45.28-2.11-7.71,6.67-17.31,10.88-27.59,8.45-4.25-1-5.04-13.62-.34-13.94,6.65-.45,12.48-2.23,17.59-5.03-10.67-14.31-17.35-35.6-15.26-52.29.92-7.35,5.46-16.53,14.44-13.34.76.27,1.46.62,2.12.99,1.2-2.59,2.98-4.84,5.48-6.52,12.99-8.71,24.5,8.44,26.65,19.31,3.31,16.77-2.7,34.09-11.35,48.32-.5.81-1.02,1.63-1.56,2.44,1.75.74,3.57,1.36,5.48,1.82,11.39,2.7,25.1.02,31.67-10.46,8.7-13.87,8.77-33.4,11.05-49.08,1.29-8.88,6.53-4.8,6.87,1.85.73,14.19-1.79,28.89-5.5,42.55Z"/>
</svg>