<?xml version="1.0" encoding="UTF-8"?>
<svg id="Layer_1" data-name="Layer 1" xmlns="http://www.w3.org/2000/svg" viewBox="0 0 566.93 123.88">
  <defs>
    <style>
      .cls-1 {
        fill: #fff;
      }
    </style>
  </defs>
  <path class="cls-1" d="m43.01,23.29c-1.96-.71-3.82-1.1-5.71-1.1-3.05,0-5.99.92-8.9,2.84-2.73,1.91-5.15,4.43-7.26,7.51-.21-3.72-.6-7.44-1.16-11.16-.18-.96-.49-1.49-.88-1.74-.46-.25-.84-.32-1.09-.32-.39,0-.7.07-1.02.32-.7.32-1.09.85-1.33,1.74-.14.53-.32,1.17-.46,1.81-.56,1.74-.95,3.47-1.26,5.21-.21,1.35-.39,2.76-.46,4.11-.11.71-.18,1.49-.25,2.2-.25,1.67-.42,3.4-.56,5.07-.39,2.94-.7,5.92-1.02,8.86,0,.32,0,.64-.07.96,0,.39,0,.71-.07,1.03-1.65,3.72-3.26,7.51-4.84,11.31-.18.39-.25.78-.25,1.17,0,.5.14.89.39,1.28-.56-.46-1.12-.96-1.58-1.42-.7-.64-1.4-.96-2.1-.96-.25,0-.46,0-.7.07-.95.21-1.58.78-1.89,1.49-.42.74-.56,1.35-.56,1.91,0,.64.14,1.35.46,2.06l.04.04c2.42,5.39,5.78,9.57,10.17,12.51.21,6.73.95,13.29,2.1,19.78.81,4.25,1.89,8.36,3.3,12.41.7,2.06,1.47,3.97,2.49,5.71.91,1.74,2.17,3.15,3.82,4.25.63.43,1.16.57,1.72.57.63,0,1.16-.25,1.72-.64,1.02-.71,1.58-1.98,1.72-3.65v-.89c0-3.08-.46-6.17-1.47-9.11-.25-.71-.42-1.49-.56-2.2-.88-3.72-1.65-7.34-2.28-11.06-.56-3.4-1.02-6.88-1.26-10.35,1.12.14,2.21.32,3.23.39h.95c4.77,0,9.29-1.17,13.6-3.47,4.63-2.45,8.55-6.06,11.74-11.06,3.37-5.21,5.26-9.78,5.71-13.68.46-3.9.7-6.49.7-7.76,0-5.14-1.19-9.96-3.61-14.64-2.73-5.28-6.49-9.07-11.25-11.38ZM10.66,67.31c-.88-.57-1.72-1.21-2.59-1.91.14.07.39.07.39.07.53,0,1.02-.39,1.4-1.17.32-.82.63-1.59.95-2.3-.07,1.77-.07,3.51-.14,5.32Zm38.07-18.15c-.21,4.25-1.37,8.22-3.51,11.77-2.14,3.54-4.8,6.31-7.99,8.22-3.19,1.98-6.49,3.01-9.85,3.08h-1.26c-1.65,0-3.19-.14-4.84-.46-.07-2.2-.07-4.32-.07-6.63s0-4.54.07-6.73c.07-2.37.07-4.75.07-7.19v-3.54c0-1.81,0-3.65-.07-5.46v-.07c1.54-2.3,3.26-4.36,5.22-6.1,1.47-1.42,3.12-2.52,4.84-3.4,1.65-.89,3.3-1.28,4.94-1.28h.88c3.44.57,6.24,2.62,8.52,6.03,2.03,3.23,3.05,6.81,3.05,10.67v1.1Z"/>
  <path class="cls-1" d="m92.13,98.57c-.25-1.98-.39-3.9-.39-5.71,0-1.35,0-2.76.07-4.18,0-3.47-.07-6.95-.14-10.35-.14-4.68-.84-9.18-2.1-13.68-1.23-4.5-3.26-8.29-6.17-11.45-2.59-2.76-4.91-4.36-7.05-4.82-2.14-.46-3.54-.71-4.24-.71-2.73,0-5.15,1.17-7.43,3.47-2.1,2.48-3.44,4.75-4,7.05-.53,2.3-.77,3.97-.77,5.14,0,2.13.39,4.18,1.26,6.31.39.78.95,1.17,1.65,1.17h.14c.7,0,1.33-.21,1.72-.78.39-.46.63-.92.63-1.49,0-.32-.07-.64-.14-1.03-.42-1.03-.56-2.13-.56-3.15,0-1.35.32-2.69.95-4.04,1.19-1.88,2.73-2.84,4.7-2.84h.46c2.24.18,4.21,1.03,5.85,2.69,1.65,1.63,2.8,3.69,3.68,6.31,1.09,3.47,1.65,7.12,1.65,10.85v.46c-1.65-.96-3.37-1.42-5.01-1.42-1.47,0-2.91.39-4.38,1.17h.04c-3.05,1.63-5.57,4.25-7.68,7.66-1.51,2.45-2.73,5.03-3.61,7.97-.95,2.94-1.4,5.64-1.4,8.08,0,.71,0,1.42.07,2.13.39,3.08,1.96,5.64,4.7,7.44,1.19.71,2.45,1.03,3.61,1.03.84,0,1.61-.18,2.49-.57,1.96-.85,3.93-2.06,5.71-3.47.25-.14.42-.32.56-.46.53-.39,1.02-.71,1.47-1.1,1.09-.71,2.17-1.52,3.19-2.3.25,1.81.7,3.4,1.4,4.89.7,1.35,1.47,2.13,2.35,2.52.81.43,1.44.57,1.89.57.7,0,1.33-.18,2.03-.57,1.02-.53,1.86-1.35,2.42-2.45.53-1.03.77-2.13.77-3.23,0-.32,0-.64-.07-.89,0-2.06-.07-4.11-.32-6.24Zm-10.45-12.62v.39c-.18,2.37-.25,4.75-.32,7.2-1.26.78-2.49,1.56-3.75,2.45-.95.71-1.89,1.42-2.91,2.2-1.79,1.52-3.58,2.69-5.47,3.72-.39.18-.7.25-.95.25-.42,0-.74-.25-.88-.64-.07-.39-.14-.78-.14-1.17,0-.5.07-1.03.14-1.59.63-3.08,1.72-5.99,3.3-8.68,1.16-2.3,2.42-3.97,3.75-5,1.33-1.03,2.42-1.49,3.37-1.49,1.02,0,2.14.39,3.3,1.28l.63.64c-.07.14-.07.46-.07.46Z"/>
  <path class="cls-1" d="m139.91,45.9c-.7-1.49-1.4-2.37-2.1-2.45-.7-.07-1.16-.07-1.4-.07-1.02,0-2.03.39-2.98,1.17-.95.85-1.4,2.06-1.4,3.54v.46c.32,2.69.7,5.35,1.26,7.97.46,2.37.84,4.75,1.16,7.12.39,4.04.63,8.15.63,12.33v2.45c-.07,4.96-.63,9.96-1.65,14.78-.11.39-.18.89-.25,1.35-.25,1.49-.63,3.08-1.02,4.75-.46,1.67-1.16,2.84-2.03,3.72-.39.32-.77.46-1.16.46-.63,0-1.23-.39-1.79-1.28-.84-1.35-1.58-3.26-2.1-5.71-.53-2.45-1.02-4.82-1.4-7.27-.39-2.48-.63-4.36-.77-5.71-.07-.43-.07-.64-.07-.89-1.4-10.38-2.35-20.88-2.8-31.4-.14-1.52-.6-2.62-1.47-3.33-.84-.64-1.65-.96-2.42-.96-.32,0-.63.07-.95.14-1.02.32-1.72,1.35-1.96,3.01-1.23,9.18-2.66,18.32-4.14,27.43-.56,3.4-1.09,6.7-1.65,10.03l-.46,2.69c-.39-1.98-.77-4.04-1.16-6.03-.7-4.04-1.26-8.08-1.65-12.19-.32-3.4-.46-6.88-.46-10.35v-2.62c.07-1.03.07-2.06.14-3.08.07-1.2.14-2.48.14-3.65,0-2.13-.14-4.36-.46-6.56-.42-1.56-.95-2.37-1.58-2.45h-1.02c-1.02,0-1.96.57-2.66,1.67-1.16,2.23-2.03,4.61-2.42,7.12-.39,2.55-.7,5.14-.95,7.76,0,.25,0,.57-.07.89-.42,4.82-.56,9.57-.56,14.39v1.81l-.07.04c.18,5.6.81,11.24,1.96,16.76v.25c.46,2.84,1.16,5.6,2.1,8.29.88,2.69,2.45,4.75,4.63,6.1,1.16.64,2.35.96,3.51.96s2.21-.21,3.23-.78c2.1-1.1,3.86-2.98,5.01-5.6,1.19-3.01,1.89-6.34,1.96-9.89l.46,3.15c.39,2.3.84,4.61,1.47,6.73.63,2.23,1.65,4.22,2.98,6.03,2.21,2.62,4.56,3.97,7.05,3.97.63,0,1.26-.11,1.89-.25,3.12-.85,5.64-3.3,7.43-7.34,1.47-3.72,2.49-7.73,3.12-12.02.63-4.18,1.09-8.47,1.4-12.65l.14-1.74c.25-2.84.32-5.67.32-8.61,0-2.52-.11-5.07-.25-7.58-.14-5.85-1.09-11.45-2.73-16.91Z"/>
  <path class="cls-1" d="m166.48,87.19c-1.47-1.67-3.05-3.26-4.84-4.68-2.66-1.98-4.91-4.5-6.8-7.51-1.26-2.45-1.89-4.82-1.89-7.12,0-1.42.25-2.84.7-4.18,1.26-3.62,3.19-6.88,5.78-9.64l.32-.32c.42-.57.63-.89.88-.96.18-.07.25-.07.32-.07.32,0,.63.21.95.78.95,1.6,1.51,3.4,1.65,5.39.18,1.21.25,2.3.25,3.4,0,3.54-.7,7.05-2.1,10.28-.25.64-.39,1.28-.39,1.81s.14,1.03.39,1.49c.56.92,1.02,1.42,1.58,1.49.46.07.7.07.77.07.84,0,1.54-.46,2.17-1.49,2.49-4.71,3.75-9.71,3.75-14.85,0-2.94-.39-5.85-1.16-8.86-.56-1.81-1.26-3.4-2.28-4.89-1.02-1.49-2.35-2.52-3.82-3.08-.56-.18-1.16-.25-1.72-.25-1.09,0-2.1.32-3.05.89-1.47.85-2.91,1.98-4.07,3.47-2.42,2.76-4.45,5.78-6.17,9.18-1.72,3.4-2.59,7.05-2.59,10.92v1.03c.39,4.25,1.54,8.05,3.51,11.31l-.07-.07c1.96,3.26,4.24,6.1,6.98,8.54,1.02.89,2.14,1.74,3.3,2.62.56.39,1.09.89,1.65,1.28l.25.25c.7.43,1.33.96,2.03,1.59.63.64,1.09,1.42,1.4,2.3.18.53.25,1.03.25,1.49,0,.89-.32,1.67-.95,2.3-.91.96-2.1,1.67-3.51,2.13-.46-.96-1.16-1.42-2.17-1.42h-.46c-1.58.46-2.49,1.28-2.73,2.45-.32,1.17-.46,2.06-.46,2.76,0,1.03.14,1.98.46,3.01.32.89.77,1.35,1.33,1.59.53.25,1.09.39,1.47.39.21,0,.53-.07.77-.14,1.93-.57,3.75-1.35,5.54-2.37,1.72-1.03,3.19-2.45,4.45-4.43,1.51-2.3,2.28-4.82,2.28-7.51,0-1.35-.18-2.69-.56-4.11-.77-2.45-1.89-4.57-3.37-6.24Z"/>
  <path class="cls-1" d="m268.49,106.09c-.63-.43-1.19-.57-1.58-.57s-.77.14-1.16.39c-.8.39-1.19,1.35-1.26,2.69,0,2.13-.7,3.72-2.1,4.75-.84.71-1.4,1.1-1.79,1.1h-.7c-.6,0-1.3-.14-2.17-.46-3.51-1.74-6.49-4.57-8.76-8.54l-1.89-3.15h-.07c.77-1.49,1.47-3.01,2.17-4.5,2.17-4.96,4-10.28,5.4-15.88,1.4-5.6,2.1-11.2,2.1-16.91-.07-1.67-.53-2.76-1.4-3.47-.84-.64-1.72-.96-2.49-.96-.32,0-.63.07-1.02.14-1.09.39-1.79,1.42-2.17,3.08-.88,5.14-1.82,10.21-2.91,15.1-1.12,5-2.66,9.71-4.63,14.39-2.21-4.29-4.31-8.54-6.42-12.9-.25-.46-.46-.96-.7-1.42-.11-.14-.25-.39-.25-.39v-.04c-2.17-4.32-4.28-8.83-6.24-13.5l.32-.46c.07-.07.25-.25.32-.39,3.05-3.72,5.47-7.34,7.36-11.06,1.79-3.72,2.73-7.44,2.73-11.24,0-1.42-.07-2.94-.32-4.43-1.09-5.39-2.91-8.72-5.4-9.89-2.56-1.17-4.52-1.74-5.85-1.74-2.35,0-4.7.89-6.98,2.69-4.14,3.72-6.31,7.2-6.56,10.53-.25,3.4-.38,5.6-.38,6.63,0,4.5.7,9,2.17,13.43.56,1.67,1.09,3.4,1.72,5.07-3.12,5.46-5.4,11.38-6.73,17.86-.88,3.86-1.26,7.76-1.26,11.63,0,5.74.95,11.38,2.73,16.91,1.72,4.75,3.89,8.08,6.56,9.89,2.59,1.88,5.01,2.84,7.12,2.84,1.65,0,3.36-.39,5.15-1.17,3.82-2.13,7.12-5.39,9.78-9.57,2.17,3.9,4.91,6.98,8.2,9.18,2.35,1.42,4.63,2.13,7.05,2.13s4.94-.78,7.36-2.37c1.79-1.28,3.3-3.01,4.38-5.32,1.01-2.2,1.58-4.5,1.58-6.88v-.71c-.07-1.35-.46-2.13-1.02-2.52Zm-45.43-62.06l.04.07c.07-2.06.63-3.9,1.79-5.39.74-.89,1.33-1.42,1.89-1.67.53-.25.91-.32,1.16-.32.7,0,1.23.32,1.79,1.03.63.96.95,2.13.95,3.47v.32c0,1.59-.25,2.94-.63,4.11-1.33,3.23-3.12,6.17-5.4,8.61-.39-1.45-.77-2.87-1.02-4.29-.42-1.77-.56-3.51-.56-5.32v-.64Zm11.43,62.81c-1.09,1.67-2.35,3.08-3.75,4.36-1.4,1.35-2.81,1.98-4.14,1.98-.39,0-.88-.07-1.33-.14-1.51-.64-2.73-1.84-3.68-3.65-.95-1.74-1.65-3.58-2.03-5.39-.88-3.26-1.26-6.49-1.26-9.82,0-1.35.11-2.69.25-4.04.56-5.07,1.72-9.82,3.68-14.25,2.24,5.14,4.59,10.28,7.19,15.28,2.24,4.36,4.52,8.68,6.87,13.04-.53.89-1.16,1.74-1.79,2.62Z"/>
  <path class="cls-1" d="m354.21,0c-.53,0-1.16.07-1.79.32-1.61.57-2.81,2.06-3.51,4.36-1.82,7.69-2.98,15.49-3.61,23.57-.14,1.6-.32,3.19-.46,4.68-1.02,9.46-1.96,18.96-2.67,28.53l-.31,4.43c-.39-8.68-.63-17.37-.63-26.16,0-7.41.14-14.85.46-22.37-.07-1.81-.52-3.08-1.4-3.79-.95-.71-1.82-1.03-2.59-1.03-.39,0-.88.11-1.26.25-1.16.39-2.03,1.42-2.49,3.23-5.08,26.02-10.03,52.03-14.86,78.05-1.47-7.51-2.56-15.1-3.44-22.86-.77-7.51-1.16-13.54-1.16-18.11-.07-4.5-.07-7.51-.07-9,0-6.1.1-12.09.25-18.11,0-1.45-.39-2.41-1.09-2.94s-1.4-.78-2.03-.78c-.25,0-.56.07-.88.14-.95.32-1.58,1.17-1.89,2.52-1.61,10.21-2.49,20.49-2.49,30.84,0,5.39.25,10.74.7,16.13,1.09,15.88,3.82,31.3,8.2,46.32.95,2.55,1.96,3.9,3.12,3.97,1.19.07,1.89.14,1.89.14v.07c1.96,0,3.3-1.35,4-4.11,1.02-5.85,2.03-11.7,3.05-17.47,2.28-12.76,4.56-25.48,6.73-38.21.07,1.42.07,2.84.14,4.18.07.71.07,1.42.07,2.13.88,17.23,3.15,34.17,6.98,50.68.52,1.98,1.23,3.08,2.1,3.33.84.32,1.4.46,1.79.46.84,0,1.61-.32,2.49-.96,1.19-.89,1.82-2.3,1.96-4.29.95-17.72,2.21-35.37,3.68-52.99.07-1.03.25-2.06.32-3.08.7-9,1.58-17.93,2.59-26.87.39-2.91.77-5.74,1.16-8.68,1.02-6.73,1.65-13.36,2.03-20.1,0-2.62-.63-4.25-1.79-5.14-1.19-.89-2.28-1.28-3.3-1.28Z"/>
  <path class="cls-1" d="m389.9,57.28c-2.03-1.35-4.07-1.98-6.1-1.98-1.4,0-2.8.32-4.14.89-3.47,1.52-6.42,3.86-9.01,7.12v-11.06c0-5.85.07-11.7.14-17.62l.46-12.02c.07-.78.07-1.56.14-2.45.17-1.35.25-2.76.25-4.11,0-1.81-.14-3.65-.46-5.46-.31-1.03-.7-1.52-1.09-1.6-.46-.07-.7-.07-.77-.07-.63,0-1.19.39-1.65,1.1-1.33,3.08-2.03,6.34-2.28,9.89-.07.57-.07,1.1-.14,1.67-.46,3.79-.95,7.58-1.33,11.31-.84,8.15-1.4,16.45-1.79,24.74-.25,6.56-.32,13.22-.32,19.85,0,9.64.25,19.28.7,28.92.25,2.87,1.02,4.68,2.35,5.39,1.33.71,2.42,1.1,3.3,1.1.77,0,1.54-.25,2.42-.71,1.65-.96,2.59-2.84,2.73-5.78v-.64c0-1.95-.25-3.79-.63-5.6-.7-7.97-1.26-16.02-1.65-24.1.84-1.49,1.96-2.91,3.12-4.25.88-1.06,2.03-2.16,3.37-3.26,1.33-1.13,2.42-1.77,3.29-1.91.88-.18,1.4-.25,1.65-.25,1.16,0,2.17.57,3.05,1.67,1.16,1.81,1.72,3.97,1.72,6.49,0,.46,0,.92-.07,1.49-.21,3.23-.6,6.17-1.16,8.68-.07.14-.07.32-.07.39-.7,3.47-1.58,6.88-2.6,10.28-.38,1.35-.84,2.59-1.4,3.86-.11.25-.17.39-.25.64-.42.85-.63,1.63-.88,2.52-.25.64-.31,1.28-.38,1.98,0,.32,0,.64-.07.96-.07.53-.07,1.03-.07,1.49,0,2.45.77,4.29,2.42,5.46.77.57,1.54.89,2.42.89,1.19,0,2.45-.57,3.61-1.74.84-.92,1.54-1.88,2.17-2.84.56-.89,1.12-1.98,1.58-3.33.95-2.45,1.72-5,2.42-7.51,1.19-4.5,1.96-9.07,2.35-13.82.25-1.81.32-3.72.32-5.53,0-3.08-.32-6.27-.88-9.43-.95-4.96-3.19-8.86-6.8-11.7Z"/>
  <path class="cls-1" d="m419.06,110.33v-.25c-.56-1.95-1.09-3.93-1.72-5.92-.77-2.59-1.47-5.21-2.1-7.9-1.12-4.82-1.96-9.71-2.59-14.71-.63-4.36-.95-8.79-.95-13.22,0-.92,0-1.88.07-2.84l.07-1.74-.07-1.81v-1.49c0-.96,0-1.91.07-2.94.11-.78.17-1.59.25-2.37.17-1.03.25-1.98.25-2.94,0-1.1-.07-2.2-.32-3.23-.31-.96-.67-1.49-1.09-1.67-.42-.18-.74-.25-.88-.25-.53,0-1.02.25-1.47.71-1.26,1.67-2.03,3.58-2.42,5.78-.32,1.21-.63,2.48-1.02,3.65-.38,1.35-.7,2.69-1.02,4.04-.88,4.11-1.26,8.4-1.33,12.9,0,.71,0,1.35-.07,2.06-.07,1.42-.07,2.87-.07,4.36,0,8.75,1.12,17.3,3.3,25.77.1.32.17.64.25.89.56,2.48,1.33,5.07,2.35,7.76,1.02,2.69,2.35,4.75,4.07,6.1.88.57,1.79.89,2.66.89.32,0,.63,0,.95-.07l-.07-.11c1.26-.32,2.28-1.17,2.98-2.52.56-1.2.88-2.48.88-3.65,0-.21,0-.53-.07-.78-.17-1.49-.49-3.01-.88-4.5Z"/>
  <path class="cls-1" d="m403.95,42.35c1.72,1.35,3.36,2.06,5.01,2.06l-.04-.04c.63,0,1.26-.11,1.96-.25,2.28-.71,3.93-2.13,4.94-4.11,1.02-1.98,1.47-3.97,1.47-5.78,0-.85-.07-1.81-.32-2.76-.56-2.23-1.58-3.9-2.98-5.07-1.47-1.17-2.98-1.74-4.45-1.74h-.63c-.07-.07-.14-.07-.14-.07-.05-.09-.07-.14-.07-.14-.81-.46-1.58-.71-2.28-.71-.46,0-.95.07-1.4.32-1.16.64-2.18,1.59-3.05,2.94-1.16,1.98-1.79,4.11-1.79,6.42,0,.85.11,1.63.25,2.52.53,2.94,1.72,5.07,3.51,6.42Zm3.19-8.36c.25-1.13.7-2.06,1.4-2.94.32-.46.63-.92.88-1.49.74.25,1.33.64,1.89,1.28.46.6.7,1.31.77,2.2,0,1.03-.25,1.88-.7,2.76-.56.89-1.16,1.28-2.03,1.28-.7-.07-1.19-.39-1.58-.96-.38-.57-.63-1.21-.63-1.91v-.21Z"/>
  <path class="cls-1" d="m437.18,87.19c-1.47-1.67-3.05-3.26-4.84-4.68-2.66-1.98-4.91-4.5-6.8-7.51-1.26-2.45-1.89-4.82-1.89-7.12,0-1.42.25-2.84.7-4.18,1.26-3.62,3.19-6.88,5.78-9.64l.31-.32c.42-.57.63-.89.88-.96.17-.07.25-.07.32-.07.31,0,.63.21.95.78.95,1.6,1.51,3.4,1.65,5.39.17,1.21.25,2.3.25,3.4,0,3.54-.7,7.05-2.1,10.28-.25.64-.39,1.28-.39,1.81s.14,1.03.39,1.49c.56.92,1.02,1.42,1.58,1.49.46.07.7.07.77.07.84,0,1.54-.46,2.17-1.49,2.49-4.71,3.75-9.71,3.75-14.85,0-2.94-.38-5.85-1.16-8.86-.56-1.81-1.26-3.4-2.28-4.89-1.02-1.49-2.35-2.52-3.82-3.08-.56-.18-1.16-.25-1.72-.25-1.09,0-2.1.32-3.05.89-1.47.85-2.91,1.98-4.07,3.47-2.42,2.76-4.45,5.78-6.17,9.18-1.72,3.4-2.59,7.05-2.59,10.92v1.03c.38,4.25,1.54,8.05,3.51,11.31l-.07-.07c1.96,3.26,4.24,6.1,6.98,8.54,1.02.89,2.14,1.74,3.29,2.62.56.39,1.09.89,1.65,1.28l.25.25c.7.43,1.33.96,2.03,1.59.63.64,1.09,1.42,1.4,2.3.17.53.25,1.03.25,1.49,0,.89-.32,1.67-.95,2.3-.91.96-2.1,1.67-3.51,2.13-.46-.96-1.16-1.42-2.17-1.42h-.46c-1.58.46-2.49,1.28-2.73,2.45-.31,1.17-.46,2.06-.46,2.76,0,1.03.14,1.98.46,3.01.32.89.77,1.35,1.33,1.59.53.25,1.09.39,1.47.39.21,0,.53-.07.77-.14,1.93-.57,3.75-1.35,5.54-2.37,1.72-1.03,3.19-2.45,4.45-4.43,1.51-2.3,2.28-4.82,2.28-7.51,0-1.35-.17-2.69-.56-4.11-.77-2.45-1.89-4.57-3.37-6.24Z"/>
  <path class="cls-1" d="m476.52,110.76c-.63-1.49-1.4-2.62-2.42-3.4-1.16-1.67-2.17-3.51-3.12-5.32-.32-.57-.63-1.1-.88-1.67-1.65-3.26-2.91-6.66-3.93-10.21-1.09-3.54-1.96-7.09-2.66-10.74-.25-1.13-.42-2.23-.56-3.33l-.32-1.59c.05-.09.07-.14.07-.14.07-.11.07-.18.07-.25,3.61-9.22,7.99-17.86,13.15-25.84.46-.85.7-1.74.7-2.52,0-.57-.14-1.17-.39-1.74-.63-1.35-1.33-2.13-2.1-2.37-.77-.25-1.33-.39-1.72-.39-.84,0-1.65.39-2.42,1.28-7.5,9.11-13.39,19.78-17.53,32.04-.32-5.25-.56-10.46-.7-15.67-.1-1.67-.17-3.33-.25-5-.25-5.32-.46-10.7-.7-15.99-.17-3.58-.25-7.05-.31-10.53v-2.06c.07-.46.07-.92.07-1.49,0-2.23-.32-4.36-.95-6.49-.38-.89-.95-1.28-1.65-1.28h-.14c-.84,0-1.4.39-1.79,1.28-.7,2.16-1.02,4.43-1.02,6.73v.96c0,.64,0,1.24-.07,1.81l-.14,6.63-.14,4.43c-.07,3.54-.14,7.2-.14,10.74s.07,7.19.14,10.74c.14,6.88.38,13.68.77,20.56.42,7.48.63,14.92.88,22.44.07,2.09.7,3.51,1.79,4.29,1.09.78,2.1,1.17,2.98,1.17.39,0,.88-.07,1.26-.14,1.4-.39,2.35-1.67,2.73-3.79.95-5.46,2.1-10.85,3.44-15.99.32,1.49.63,3.01.95,4.5.56,2.3,1.09,4.5,1.72,6.81.39,1.59.88,3.15,1.26,4.82.56,2.06,1.19,4.04,1.89,6.03.7,1.98,1.26,4.04,1.79,6.1.53,2.06,1.4,3.4,2.49,4.11,1.12.71,2.03,1.03,2.91,1.03.7,0,1.51-.18,2.28-.57,1.65-.96,2.66-2.06,2.98-3.4.25-1.28.39-2.3.39-3.01,0-1.21-.25-2.37-.63-3.65l-.04.07Z"/>
  <path class="cls-1" d="m507.61,97.15c-.56-.07-.95-.07-.95-.07l.07.11c-.84,0-1.54.32-2.17.96-.84.89-1.86,1.49-3.12,2.06-1.26.57-2.42.89-3.44,1.03-.25.07-.56.07-.88.07-1.79,0-3.44-.64-4.84-1.91-3.82-3.26-6.35-7.69-7.5-13.29.7.07,1.33.14,2.03.14,3.23,0,6.34-1.03,9.32-3.08,3.68-2.55,6.28-6.03,7.75-10.46.77-2.59,1.16-5.35,1.16-8.29,0-1.21-.11-2.45-.25-3.72-.38-4.22-1.65-7.9-3.75-11.16,0-.71-.25-1.42-.7-1.98-.84-.85-1.79-1.42-2.81-1.81-.1-.07-.17-.04-.25-.14-.07-.11-.25-.18-.31-.25-.32-.25-.63-.32-.95-.32s-.63.07-.88.32c-2.1,0-4.21.64-6.24,1.98-2.03,1.35-3.82,2.94-5.4,4.75-4.94,5.64-8.06,12.51-9.32,20.81-.39,2.62-.63,5.21-.63,7.83,0,5.85,1.09,11.55,3.19,17.15,1.47,3.93,3.58,7.27,6.17,10.03,2.6,2.76,5.57,4.5,9.08,5.28,1.19.25,2.28.39,3.36.39,2.6,0,5.01-.64,7.43-1.91,3.51-1.98,5.78-5.32,6.8-9.89.07-.46.14-.96.14-1.35,0-.74-.17-1.35-.56-1.91-.56-.78-1.02-1.28-1.58-1.35Zm-21.67-33.14v.07c.07-.25.07-.43.14-.57.7-2.62,1.89-5.14,3.61-7.76,1.72-2.62,3.75-4.11,6.03-4.68,1.33,2.37,1.96,5.07,1.96,8.15v1.03c-.25,3.62-1.51,6.38-3.68,8.29-1.96,1.98-4.07,3.01-6.35,3.08-.56,0-.95,0-1.26-.07-.38-.11-.7-.18-1.09-.25-.28-.11-.7-.18-1.16-.25.46-2.37,1.09-4.75,1.79-7.05Z"/>
  <path class="cls-1" d="m537.48,50.4c0-.11,0-.18-.07-.25-.63-1.98-1.4-3.08-2.35-3.47-.95-.32-1.58-.46-1.96-.46-1.02,0-1.96.57-2.98,1.6-6.03,7.12-10.1,15.67-12.27,25.63,0,.11,0,.18-.07.25,0-6.49.77-12.97,2.35-19.39.07-.25.07-.39.07-.64,0-.53-.14-1.03-.46-1.42-.49-.57-1.02-.89-1.65-.89-.53,0-1.02.39-1.4,1.17-3.29,8.47-4.94,17.33-4.94,26.72v.99c.07,4.86.53,9.57,1.4,14.25.38,2.2.95,4.43,1.65,6.56.25,1.03.63,2.06,1.02,3.08.56,1.35.95,2.76,1.33,4.18.49,1.74,1.12,2.76,1.89,3.01.77.25,1.33.39,1.72.39.81,0,1.58-.21,2.28-.78,1.09-.82,1.72-2.16,1.79-3.97v-1.59c0-2.16-.11-4.22-.25-6.34-.18-2.52-.25-5.07-.25-7.59.07-4.82.52-9.57,1.4-14.25,1.09-5.95,3.12-11.31,6.03-16.3.88,1.74,1.96,3.08,3.29,4.11.46.32.95.46,1.4.46.38,0,.7-.11,1.02-.25.84-.39,1.4-1.21,1.72-2.3.25-.96.32-1.91.32-2.94,0-1.1-.14-2.23-.38-3.4-.39-2.2-.95-4.25-1.65-6.17Z"/>
  <path class="cls-1" d="m566.37,93.43c-.77-2.45-1.89-4.57-3.36-6.24-1.47-1.67-3.05-3.26-4.84-4.68-2.66-1.98-4.91-4.5-6.8-7.51-1.26-2.45-1.89-4.82-1.89-7.12,0-1.42.25-2.84.7-4.18,1.26-3.62,3.19-6.88,5.78-9.64l.32-.32c.42-.57.63-.89.88-.96.17-.07.25-.07.31-.07.32,0,.63.21.95.78.95,1.6,1.51,3.4,1.65,5.39.17,1.21.25,2.3.25,3.4,0,3.54-.7,7.05-2.1,10.28-.25.64-.38,1.28-.38,1.81s.14,1.03.38,1.49c.56.92,1.02,1.42,1.58,1.49.46.07.7.07.77.07.84,0,1.54-.46,2.17-1.49,2.49-4.71,3.75-9.71,3.75-14.85,0-2.94-.39-5.85-1.16-8.86-.56-1.81-1.26-3.4-2.28-4.89-1.02-1.49-2.35-2.52-3.82-3.08-.56-.18-1.16-.25-1.72-.25-1.09,0-2.1.32-3.05.89-1.47.85-2.91,1.98-4.07,3.47-2.42,2.76-4.45,5.78-6.17,9.18-1.72,3.4-2.6,7.05-2.6,10.92v1.03c.39,4.25,1.54,8.05,3.51,11.31l-.07-.07c1.96,3.26,4.24,6.1,6.98,8.54,1.02.89,2.14,1.74,3.3,2.62.56.39,1.09.89,1.65,1.28l.25.25c.7.43,1.33.96,2.03,1.59.63.64,1.09,1.42,1.4,2.3.18.53.25,1.03.25,1.49,0,.89-.31,1.67-.95,2.3-.91.96-2.1,1.67-3.51,2.13-.46-.96-1.16-1.42-2.17-1.42h-.46c-1.58.46-2.49,1.28-2.73,2.45-.32,1.17-.46,2.06-.46,2.76,0,1.03.14,1.98.46,3.01.32.89.77,1.35,1.33,1.59.53.25,1.09.39,1.47.39.21,0,.53-.07.77-.14,1.93-.57,3.75-1.35,5.54-2.37,1.72-1.03,3.19-2.45,4.45-4.43,1.51-2.3,2.28-4.82,2.28-7.51,0-1.35-.17-2.69-.56-4.11Z"/>
</svg>